<svg xmlns="http://www.w3.org/2000/svg" width="6912" height="5760" viewBox="0 0 5184 4320"><path fill="#fff" d="M2302.336 1097.352c59.293 37.46 99.543 49.117 186.25 27.293 2.11-.532 4.074-1.793 6.352-.165 11.402 7.493 50.984 29.645 61.082 32.415 31.273 8.957 61.57 19.87 88.285 39.253 25.57 18.407 45.48 35.254 75.453 46.497.16.16.324.652.648 1.3-.453 8.145-1.129 13.575-19.254 29.739 7.328-1.957 13.192-6.028 18.891-10.426 18.57-14.172 20.363-22.969 10.102-43.817-.977-1.789-1.954-3.586-2.93-5.375-3.422-6.84-7.496-13.355-8.961-21.175-2.281-12.704 5.05-19.055 17.266-15.149 4.722 1.469 8.632 4.399 12.867 6.68 2.441 1.305 5.21 4.07 7.82 1.953 2.441-2.277.324-5.371-.652-7.816-4.563-10.75-11.239-20.2-17.594-29.809-1.629-2.281-3.258-1.957-5.211-1.305-7.492 2.606-13.844.328-19.547-4.722-6.351-5.375-13.355-9.938-21.824-11.403-9.285-1.629-15.477-10.586-14.008-20.195.488-3.258 1.3-7.004 5.211-7.168 4.234-.324 4.398 3.746 5.05 6.84 1.79 9.285 14.985 19.058 25.247 18.082-5.703-6.191-12.219-11.402-16.941-18.406-2.606-3.91-3.91-7.332-.977-12.22 1.629-2.929 3.422-6.515 3.746-10.585-6.516 6.027-14.496 7.004-22.805 6.844-16.125-.328-33.879-7.82-46.257-18.082-1.63-1.301-3.582-2.934-5.54-2.606-1.625.324-2.765 1.465-4.07 2.442-4.238 3.586-9.773 5.05-15.312 4.886-5.535 0-10.914-1.465-16.125-3.257-.489-.325-1.141-.489-1.465-.977-.328-.816.16-1.629.652-2.445 3.906-5.211 4.235-13.032 4.235-19.383.16-7.652-4.563-13.844-5.215-20.684.98 10.586.328 21.012-2.278 31.274-.816 2.77-2.12 4.398-5.05 5.375-23.293 6.84-45.774 16.289-67.598 26.875-21.176 10.425-42.84 18.73-66.781 21.011-39.418 3.746-77.371-3.746-114.348-16.937-12.867-4.563-25.246-10.426-37.95-16.617.653 2.445 8.235 11.148 9.536 11.965m123.867 602.433c3.094 3.258 4.399 7.82 5.211 12.383 2.281 14.496-.652 29.645-7.98 42.348 14.66-8.145 25.41-22.965 28.503-39.254 1.305-6.68 1.305-13.684-1.953-19.547-2.445-4.559-6.84-7.98-11.242-10.914-13.68-9.446-29.316-16.125-45.441-19.707 9.61-13.36 24.922-21.828 40.883-26.227 17.101-4.887 40.558-9.12 58.312-6.187 2.117.488 27.203 9.61 24.922 13.843l10.176-19.738c-13.438-7.683-31.09-10.258-43.367-9.101l16.87-86.27 105.872-95.984-27.48 90.715 88.433-171.508-218.781 192.5c14.476-43.375 20.48-61.578 34.886-84.508-92.101 120.086-80.64 167.43-118.945 164.207-11.527 21.535-11.527 46.89-11.527 46.89 20.36 6.676 40.558 13.356 60.918 20.036 4.238 1.3 8.636 2.765 11.73 6.023"/><path fill="#fff" d="M2494.938 1338.672c5.05 11.566 7.656 23.945 7.984 37.953-4.887-5.375-7.985-10.262-12.383-14.172-13.027-11.238 2.281 19.383 4.238 40.07.813 8.633.813 17.102 0 25.575l-1.465 9.77c5.7-4.888 32.086-63.524 18.567-109.782-7.004-23.781-46.422-58.8-116.461-49.027 0 0-36.836-12.942-69.25-12.942 23.617-8.308 107.383-23.527 185.059-8.722 24.921-2.77 51.144.488 72.16 14.007 20.847 13.52 35.343 38.442 31.925 63.2-.164.652-.492 1.464-.492 2.117 22.317-18.242 44.957-36.16 67.926-54.078-15.8-2.118-30.137-4.563-44.14-8.145-31.602-7.816-61.899-17.918-87.633-38.766-10.914-9.12-33.914-14.27-35.383-15.898 17.758-11.727 22.676-28.082 29.515-48.766-2.44.977-2.93 3.094-3.906 4.399-13.683 18.894-30.46 34.203-53.101 41.535-13.844 4.559-26.711 2.77-37.625-7.984-4.727-4.559-9.938-8.793-15.149-13.032-8.308-6.515-11.851-9.527-21.297-15.226 7.98-10.914 18.04-34.29 18.04-34.29-3.422 1.63-5.864 4.075-8.31 6.516-14.984 14.989-30.62 29.32-48.538 41.047-21.824 14.172-135.192 76.395-110.274 76.23 36-.488 109.332 17.575 123.36 28.887 38.765-2.28 92.629 6.297 106.633 39.524m374.183 264.238-4.273 35.574c-.946 29.715 4.722 59.317 18.39 86.735 49.934 100.156 184.621 133.808 300.078 73.816 115.848-60.2 167.176-191.148 114.586-290.695-14.394-27.246-35.246-49.094-60.039-65.477l-31.402-16.953c-20.941-8.906-43.715-14.367-67.39-16.383l-54.227 1.301c-19.63 2.727-39.371 8.016-58.793 15.606l-53.442 28.117c-3.261 2.215-6.148 4.75-9.285 7.074 19.781 29.04 39.563 58.172 59.196 87.332 3.097 4.559 6.027 8.309 12.382 6.516 1.625-.489 3.743 0 5.371.648 3.586 1.633 6.356.328 9.45-1.629 19.382-11.726 40.23-16.773 62.87-12.867 42.352 7.332 65.481 47.238 49.845 87.309-12.704 32.25-37.301 51.144-70.856 57.171-31.926 5.536-59.125-2.77-76.879-32.09-1.14-1.788-2.117-2.445-4.398-2.445-10.098.164-13.844-3.09-15.149-13.191-1.14-8.145.16-16.125 1.793-24.106.488-2.77.324-5.375-1.14-8.144-3.91-7.82-3.582-15.8 1.304-22.965 2.442-3.586 2.117-5.703-.328-8.797-21.566-28.617-43.055-57.199-64.707-85.699-1.84 1.879-3.941 3.578-5.707 5.504l-32.05 44c-11.856 20.625-20.43 42.457-25.2 64.738m-763.801 161.38c42.024-5.864 35.996 50.983 12.051 69.878 53.43-14.66 104.246-38.77 149.367-71.02-21.011-6.187-42.187-12.05-63.523-17.265-1.793-8.633-.328-17.754 4.07-25.41 6.68-.164 13.52-.164 20.2-.325-8.15-32.027 10.972-50.699 26.472-73.195l-10.46-8.277c-26.895 25.43-68.942 64.277-98.923 87.66-14.82 11.566-27.851 22.64-39.254 37.953"/><path fill="#fff" d="M2036.16 2017.906c103.309 6.809 214.297-72.883 253.598-179.62a63082 63082 0 0 1-116.188 46.214c-2.77.977-4.886 2.605-7.168 4.395-17.918 13.847-37.789 21.664-60.757 19.87-3.254-.16-5.372 1.141-7.653 2.77-11.242 7.656-27.203 6.516-37.14-2.605-5.375-5.047-5.864-11.075-1.141-16.614.977-1.304 2.117-2.441 3.586-3.91-9.285-11.566-14.008-24.27-14.496-38.437 0-1.957-.817-3.586-1.953-5.051-13.848-18.246-13.684-37.3-2.774-56.848 7.656-13.52 21.34-25.246 32.254-28.015-1.793 6.515-3.422 12.703-5.215 19.058 4.399-6.843 7.492-14.336 11.078-21.504 5.047-10.421 10.262-20.847 19.547-28.668 27.852-23.129 55.543-46.418 83.235-69.71 6.515-4.399 13.03-9.126 19.382-13.848 3.907-2.93 7.817-5.863 11.563-8.957 2.934-2.446 5.7-5.051 8.797-7.492.847-.649 1.73-1.243 2.59-1.868-12.809-6.671-26.883-11.683-42.246-14.629l-50.625-2.351c-18.055 1.566-36.055 5.375-53.676 11.48l-47.817 22.477a292.3 292.3 0 0 0-56.953 44.062l-25.5 28.95c-19.672 25.465-35.308 54.117-44.777 84.86-34.473 111.855 23.566 208.944 130.45 215.991"/><path fill="#fff" d="M1479.79 1281.629h86.702v18.578h-66.285v30.125h58.746v18.586h-58.746v31.297h67.117v18.582h-87.535Zm173.483 80.008c-.73-1.676-2.07-3.207-4.02-4.606-1.964-1.39-4.655-2.703-8.065-3.93-3.407-1.23-7.86-2.515-13.333-3.851-6.265-1.45-11.84-3.07-16.703-4.855-4.863-1.782-8.945-4.016-12.25-6.692-3.304-2.683-5.816-5.918-7.554-9.71q-2.602-5.687-2.602-13.891c0-5.137.996-9.793 2.988-13.977 2-4.187 4.735-7.785 8.215-10.797 3.496-3.015 7.68-5.328 12.582-6.945 4.899-1.617 10.258-2.434 16.051-2.434 8.602 0 16.32 1.258 23.184 3.774 6.863 2.504 13.308 6.16 19.332 10.957l-11.035 15.566c-5.364-3.902-10.668-6.89-15.915-8.95q-7.861-3.1-15.898-3.1c-6.023 0-10.707 1.37-14.062 4.1-3.34 2.74-5.012 6.056-5.012 9.962 0 2.344.383 4.351 1.172 6.023.777 1.676 2.21 3.242 4.277 4.688 2.066 1.457 4.922 2.797 8.559 4.02 3.636 1.226 8.246 2.507 13.843 3.847 6.153 1.562 11.614 3.293 16.36 5.191 4.761 1.899 8.703 4.211 11.828 6.946 3.14 2.734 5.512 5.918 7.133 9.543 1.62 3.62 2.437 7.89 2.437 12.804 0 5.582-1.02 10.543-3.074 14.895-2.043 4.351-4.899 8.035-8.55 11.047-3.65 3.015-8.04 5.3-13.157 6.863-5.129 1.563-10.766 2.34-16.89 2.34q-13.573.001-25.954-4.598c-8.258-3.07-15.898-7.785-22.93-14.144l12.387-14.735c5.692 4.914 11.434 8.68 17.242 11.301q8.707 3.938 19.75 3.938 9.536 0 15.145-4.02 5.615-4.019 5.617-10.879c0-2.117-.371-4.02-1.098-5.691m34.91-80.008h95.07v19.082h-37.151v98.086h-20.762v-98.086h-37.156Zm96.399 94.234h22.27v22.934h-22.27Zm63.148 479.39 11.567-2.44a262 262 0 0 1 2.613-18.098l-11.363 1.515a296 296 0 0 1 5.832-25.34l11.004-.308a302 302 0 0 1 5.547-17.98l-10.676-.602.191-.547a332 332 0 0 1 9.762-24.816l10.188 1.746a324 324 0 0 1 8.289-17.41l-9.77-2.606a356 356 0 0 1 13.379-23.738l9.133 3.723a344 344 0 0 1 10.77-16.422l-8.598-4.543a374 374 0 0 1 16.652-22.082l7.82 5.586a355 355 0 0 1 12.977-15.036l-7.192-6.343a381 381 0 0 1 19.493-19.899l6.293 7.293a362 362 0 0 1 14.84-13.3l-5.579-7.965c7.067-6 14.426-11.797 21.88-17.235l4.562 8.813A352 352 0 0 1 2013.71 1616l-3.766-9.39a359 359 0 0 1 23.782-14.11l2.64 10.098a329 329 0 0 1 17.531-8.793l-1.773-10.586a331 331 0 0 1 25.156-10.52l.563 11.145a298 298 0 0 1 18.273-6.067l.371-11.496a298 298 0 0 1 25.899-6.48l-1.649 11.902a265 265 0 0 1 18.54-3.02l2.609-12.132c7.59-.992 15.25-1.66 22.773-1.992 1.5-.02 2.508-.024 3.508-.02l-4.336 12.25a233 233 0 0 1 18.356.2l4.855-11.837c8.508.54 16.906 1.438 24.96 2.676l-5.8 11.692a202 202 0 0 1 17.504 3.632l6.703-11.78c8.2 1.91 16.23 4.253 23.871 6.972l-8.172 12.035a180 180 0 0 1 15.954 7.152l9.41-12.16c1.82.852 3.504 1.914 5.246 2.883.402-1.164.93-2.316 1.422-3.399 3.093-6.68 6.027-7.003 11.074-1.304 5.863 6.68 13.523 11.402 21.504 15.472 12.05 6.356 23.781 13.036 31.597 24.762-1.628-7.492-6.515-12.707-11.89-17.594-9.285-8.632-20.36-15.148-29.48-24.27-1.305-1.3-2.61-2.605-3.75-3.91-4.723-4.558-6.024-9.445-4.235-16.284 10.59-40.235 27.367-77.047 55.871-107.832 14.332-15.473 31.113-27.688 50.496-36.16 1.14-.325 2.277-.813 3.906-1.63-2.765-.976-4.5.657-6.515.653-34.957-.078-70.653 28.71-91.664 55.422-1.63 2.117-2.934 3.746-6.356 3.257-32.25-4.722-50.515-3.238-82.93-1.445-.816 0-1.628.324-2.445-.164 32.09-15.637 58.953-37.851 85.34-61.957-9.937 5.54-19.547 11.566-29.48 16.941-41.047 21.825-83.887 39.09-130.473 45.606-24.27 3.422-48.215 2.61-71.016-7.656-27.691-12.54-43.328-35.508-53.101-63.196-6.844-19.222-9.938-39.093-12.867-59.293-.817-5.535-1.63-11.074-2.606-17.265 7.816-.16 15.473-.16 23.129-.324 25.41-.813 50.004-6.352 74.273-14.172 22.477-7.168 44.957-14.332 68.25-18.567-16.453-1.468-32.414.649-48.375 4.07-18.898 4.075-37.3 9.61-56.359 12.215-32.086 4.399-63.035-.16-93.332-10.914-5.21-1.789-10.262-4.558-14.824-8.14-8.797-7.004-10.262-15.473-4.07-25.086 5.374-8.309 13.19-14.168 21.175-19.707 15.473-10.75 32.086-18.735 50.657-25.574-.98 18.078-1.141 35.507 2.277 52.937 2.117-14.984 3.91-29.809 6.68-44.469 3.421-17.59 7.003-35.02 14.66-51.304 3.093-6.356 26.875-48.38 41.21-52.453-20.73 38.523-5.042 84.238 43.489 107.992-8.797-11.074-17.918-21.66-24.922-34.203-20.035-35.184-16.613-69.715 10.102-100.5 3.906-4.559 8.304-8.797 12.703-13.52 7.273 24.324 27.129 27.406 38.043 28.547 17.265 1.793 37.047-6.07 53.172-13.399-7.329.653-14.497 1.63-21.825 1.954-11.73.652-23.457-.325-34.859-3.907-19.871-6.515-26.223-19.382-19.059-39.093 7.497-21.176 21.176-38.118 37.79-52.774 11.242-9.937 22.968-19.222 34.53-28.832 8.31-7.168 15.477-15.148 21.016-24.922 7.817-14.008 17.59-17.265 32.575-11.89 3.91 1.304 7.492 3.093 11.242 4.562 5.535 2.281 10.586 3.258 15.96-1.305 3.907-3.257 8.31-1.628 12.216 1.141 7.98 5.375 26.386-24.594 19.546-28.016-16.453-8.308-22.152-23.457-22.316-40.882-.164-16.125 4.234-31.274 9.938-46.098 3.582-9.121 4.636-13.066 9.687-21.7 28.016 29.157 62.11 36.106 98.922 48.16 6.351 1.954 11.074 4.724 11.887 11.892.98 8.144.492 15.796-5.372 22.316-2.609 2.93-5.867 1.465-8.96.488-29.809-9.449-53.715-20.433-80.754-36.398-2.282-1.301-4.723-2.77-7.332-3.746 7.332 7.004 15.64 12.379 24.27 17.754 21.01 13.195 43.327 23.78 66.784 31.437 8.957 2.934 13.196 1.469 17.59-6.84 4.235-7.98 5.867-16.613 4.563-25.734-1.305-8.633-5.703-14.5-14.336-16.942-23.13-6.843-45.606-15.636-65.969-28.996-9.281-6.023-18.977-11.906-24.594-21.5-14.031-23.96-2.57-36.027 29.403-40.851 23.113-3.488 48.433 1.18 70.586 7.531 37.789 10.75 76.613 31.078 76.613 31.078s54.531-2.152 63.488 5.664c2.77 2.442 5.05 5.211 6.68 8.469 5.21 10.426 1.793 18.895-9.446 22.152-14.171 3.91-28.02 8.47-40.722 15.477-3.258 1.789-6.192 3.746-9.938 6.023-3.746-10.75-7.816-21.011-16.613-30.62 3.91 10.913 6.605 16.675 6.934 27.59-20.688-6.028-40.813-2.833-61.012 4.335 1.629 0 3.258 0 4.887-.16 18.406-1.633 36 1.465 52.937 8.14 2.934 1.141 4.074 2.446 3.91 5.704-1.3 25.574-8.468 49.68-18.57 73.625-25.734-2.446-47.398-13.196-65.805-30.79 7.332 11.891 17.43 20.848 29.157 28.02 17.43 10.75 36.488 15.961 57.171 15.797 9.121 0 11.243 3.098 9.286 12.219-2.282 10.097-8.633 17.754-14.985 25.246-8.633 10.097-16.777 20.36-27.367 28.34-8.633 6.68-11.398 6.68-19.219-.489-34.531-31.761-71.18-60.59-109.945-86.98-1.629-1.14-3.422-2.117-5.375-2.77 26.71 23.946 52.937 48.38 78.184 75.09-14.985 3.586-17.704 11.621-9.122 22.153-37.988-.125-57.988-13.516-69.55-23.13-12.22-9.933-22.317-22.312-35.512-31.433-10.098-7.008-21.012-11.89-33.063-14.5-.492 1.305.325 1.633.977 1.793 17.102 6.516 30.785 17.918 42.512 31.598 7.98 9.285 16.289 18.406 27.691 26.715-3.746.164-6.191.328-8.473.488-22.152 1.305-42.836 6.68-61.242 19.222-11.078 7.817-19.383 17.59-20.199 32.086 11.402-28.828 36.813-35.996 63.363-40.558 16.778-2.93 33.555-2.281 49.844 2.933 14.332 4.399 28.992 5.54 43.977 4.883 32.414-1.136 64.668 1.793 97.082 2.446 18.73.328 37.297-.16 55.703-2.606-.977-10.426 1.793-14.008 11.73-14.984 4.235-.489 8.469-.98 12.703-.98 4.164-.095 7.29.558 9.473 4.25 1.238 2.093.3 3.968 2.711 4.718 1.883.59 5.773-2.113 7.266-3.059 8.726-5.52 14.222-15.718 24.457-18.925 3.984-1.25 8.242-1.184 12.414-1.11 2.383.043 4.836.102 7.023 1.035 3.457 1.48 5.672 4.871 7.356 8.23a59.7 59.7 0 0 1 6.27 24.99c3.98-8.763 4.808-18.919 2.3-28.208 8.3 1.156 15.332 7.606 18.351 15.426 3.02 7.82 2.364 16.738-.582 24.586 5.649-8.117 8.532-18.125 8.063-28.004 10.73 4.133 18.68 14.707 19.66 26.164s-5.05 23.234-14.922 29.129c3.242 1.309 7.012 1.246 10.211-.168 2.043-.902 3.95-2.356 6.18-2.434 4.523-.164 7.125 5.067 8.058 9.496 2.102 9.997 9.258 13.422 15.079 21.356 3.257 4.394 5.21 9.121 2.441 14.496 14.984 11.89 17.59 18.242 16.613 40.719 30.297 7.984 53.914 24.758 68.25 53.914 8.793-3.746 15.961-10.91 25.735-11.727 1.953 3.582 0 6.352-1.465 8.797-4.727 8.309-9.774 16.29-14.66 24.434-1.305 1.953-2.446 3.582-2.118 6.187 1.465 11.727.649 23.457-1.793 35.02-.324 1.14-.488 2.281.653 3.75 3.582-.328 17.754 19.707 22.969 28.176.812 1.304 2.93 2.117 4.558 2.933 32.738 19.219 54.403 46.586 61.735 84.535 1.953 10.426 4.558 21.016 8.632 30.95.98 2.453 2.352 4.777 3.676 7.113 4.41-3.203 8.852-6.38 13.48-9.399l-5.913-9.007a350 350 0 0 1 21.277-12.848c.023-.016.047-.027.07-.043l.406-.215q1.496-.774 2.985-1.531l4.3 9.86a329 329 0 0 1 18.223-9.18l-3.539-9.786a422 422 0 0 1 26.13-10.765l2.577 10.074a321 321 0 0 1 19.414-6.457l-1.828-10.516a361 361 0 0 1 27.543-7.414l.703 11.305a312 312 0 0 1 20.078-3.457l.29-11.934a319 319 0 0 1 28.437-3.27l-1.8 12.657a301 301 0 0 1 20.194-.316l3.055-13.051a287 287 0 0 1 28.477 1.504l-4.774 13.265c6.672.739 13.29 1.7 19.84 2.903l6.027-13.149a267 267 0 0 1 27.493 6.563l-7.559 12.68a261 261 0 0 1 18.965 6.257l8.562-12.133a256 256 0 0 1 25.512 11.532l-9.676 11.195a238 238 0 0 1 17.457 9.652l10.371-10.425a249 249 0 0 1 22.704 16.18l-11.196 9.386a224 224 0 0 1 15.192 13l11.77-8.621a246 246 0 0 1 19.155 20.418l-12.554 7.637a218 218 0 0 1 12.199 16.054l13.195-6.898.18.254a243 243 0 0 1 14.684 23.945l-14.125 5.926a215 215 0 0 1 8.527 18.656l14.914-5.148a239 239 0 0 1 9.746 27.457l-16.05 3.988a217 217 0 0 1 4.269 20.605l16.922-2.988a240 240 0 0 1 3.715 29.926l-18.004 1.434c.21 7.214.074 14.468-.387 21.734l18.664-.082a245 245 0 0 1-3.164 31.293l-19.148-1.918a256 256 0 0 1-5.094 21.992l19.133 3.512a262 262 0 0 1-10.512 31.14l-18.574-5.629a279 279 0 0 1-9.75 21.34l17.722 7.11c-5.183 9.941-11.097 19.797-17.574 29.285l-16.148-8.805a299 299 0 0 1-14.188 19.793l14.781 9.844c-7.226 8.875-15.144 17.61-23.53 25.95l-12.88-10.915a316 316 0 0 1-18.09 17.29l11.516 11.562c-8.77 7.52-18.148 14.84-27.875 21.761l-9.984-12.445a327 327 0 0 1-21.172 13.844l9.086 13.281a460 460 0 0 1-27.254 15.645l-.504.257a402 402 0 0 1-3.473 1.649l-7.449-15.035a331 331 0 0 1-23.055 9.812l6.055 15.57a343 343 0 0 1-33.453 10.754l-4.098-16.113a317 317 0 0 1-23.941 5.441l2.62 16.372a326 326 0 0 1-33.929 4.406l-.668-16.543c-7.976.633-15.906.937-23.765.933l-.774 16.516a307 307 0 0 1-32.863-1.898l2.61-16.27a280 280 0 0 1-22.555-3.367l-3.922 15.96a283 283 0 0 1-30.477-7.76l5.57-15.384a257 257 0 0 1-20.523-7.28l-6.695 14.823a261 261 0 0 1-27.024-12.965l8.075-13.953a237 237 0 0 1-17.805-10.718l-9.004 13.21a242 242 0 0 1-22.766-17.39l10.086-12.11a220 220 0 0 1-14.597-13.578l-10.79 11.227a229 229 0 0 1-17.949-20.969l11.586-9.988a215 215 0 0 1-11.07-15.836l-12.066 9.023a227 227 0 0 1-12.813-23.59l12.559-7.722a216 216 0 0 1-7.399-17.422l-12.836 6.707-.199-.539a232 232 0 0 1-7.598-25.293l13.078-5.406a220 220 0 0 1-3.671-18.395l-13.184 4.414a240 240 0 0 1-2.48-26.187l13.203-3.094a232 232 0 0 1-.051-18.777l-13.125 2.105a254 254 0 0 1 2.48-26.312l12.914-.813a250 250 0 0 1 3.422-18.633l-12.687-.132a275 275 0 0 1 7.137-25.711l12.269 1.355c1.98-6.05 4.18-12.055 6.606-17.996l-11.887-2.242c3.39-8.258 7.23-16.5 11.414-24.496l11.297 3.386a289 289 0 0 1 9.535-16.937l-10.781-4.207a314 314 0 0 1 15.296-22.73l10.016 5.253a304 304 0 0 1 12.2-15.492l-9.395-6.008a329 329 0 0 1 18.797-20.46l8.476 6.949c1.403-1.407 2.93-2.727 4.364-4.11-.836-.98-1.707-2.015-2.524-2.98-3.418-5.211-7.004-10.262-10.258-15.637-2.77-4.234-5.375-8.957-9.285-12.215-16.941-22.316-33.883-44.633-50.66-66.945-.813-.977-1.625-2.117-2.606-2.606-14.332-6.68-23.945-19.058-35.183-29.648l-2.93-2.93c-13.355-11.238-23.129-10.425-34.207 2.93-11.398 13.848-18.73 30.297-27.527 45.773-45.281 80.79-90.235 161.907-135.356 242.86-.976 1.793-2.77 3.582-2.605 6.515 5.375-6.515 10.75-12.543 15.8-18.894 2.118-2.606 4.56-4.399 7.817-5.375 12.215-3.91 24.434-7.004 37.465-5.703 19.219 2.12 28.828 15.64 24.105 34.207-3.582 14.824-12.707 26.062-24.43 35.347-2.28 1.79-4.073 1.625-6.19-.652a116 116 0 0 0-8.958-8.96c-8.96-7.981-19.058-7.817-27.691.327-2.77 2.606-5.54 5.211-7.98 8.633 3.581-2.441 7.163-4.723 10.75-7.004 7.652-5.05 13.355-4.722 19.542 1.79 6.028 6.515 11.73 13.359 17.266 20.527 3.746 4.882 1.793 9.933-1.137 14.496-2.12 3.258-4.562 5.863-7.984 7.328-20.36 9.773-40.883 19.219-62.059 29.156.489-7.656 11.403-49.516 13.032-56.848 1.468-6.187 3.746-12.378 3.746-19.054.164-16.942-13.032-28.508-29.48-23.946 9.445.817 15.796 3.91 18.73 12.055 2.117 5.535 2.28 11.074.652 16.613-6.352 22.805-12.867 45.606-19.383 68.41-1.793 6.84-5.05 13.032-10.59 17.43-21.011 17.102-42.023 34.207-64.828 49.028-14.656 9.609-30.62 9.12-46.91 9.12-12.215-.163-24.105-2.28-33.715-11.238-1.793-1.793-3.586-1.14-5.539-.328-8.957 3.586-17.754 7.332-26.715 10.43-10.101.832-19.55 4.922-28.808 9.457-.7 2.383-1.442 4.758-1.938 7.148 4.723.122 9.512.524 14.258.79a334 334 0 0 1-9.32 30.785l-14.028-2.313a312 312 0 0 1-8.921 21.77l13.832 3.515a361 361 0 0 1-14.942 30.137l-13.52-5.242a338 338 0 0 1-12.898 20.598l13.2 6.613a371 371 0 0 1-20.196 28.097l-12.559-8.554a359 359 0 0 1-16.257 18.422l11.859 10.039a364 364 0 0 1-24.793 24.593l-10.559-11.902a362 362 0 0 1-18.78 15.508l9.316 13.129a343 343 0 0 1-28.243 19.687l-7.402-14.418a338 338 0 0 1-20.48 12.008l5.832 15.035a323 323 0 0 1-30.125 13.817l-3.739-15.371a309 309 0 0 1-21.359 8.09l2.266 15.335a307 307 0 0 1-30.348 7.715l-.512-15.008a268 268 0 0 1-21.304 3.93l-.625 14.692a300 300 0 0 1-29.215 2.128l1.953-14.441c-6.809.191-13.586.086-20.313-.312l-2.879 14.523a308 308 0 0 1-24.406-2.121c-1.394-.23-2.355-.406-3.312-.586l4.71-14.906a204 204 0 0 1-18.472-4.23l-5.688 14.554a200 200 0 0 1-24.363-8.703l6.926-13.934a178 178 0 0 1-16.098-7.8l-7.773 13.378a182 182 0 0 1-20.652-13.41l8.789-12.558a169 169 0 0 1-13.278-10.934l-9.465 11.855a178.5 178.5 0 0 1-16.43-17.37l10.208-10.844a172 172 0 0 1-10.192-13.473l-10.68 10.035a187.5 187.5 0 0 1-11.952-20.496l11.175-8.906a185 185 0 0 1-6.988-15.43l-11.445 8.024a204 204 0 0 1-7.387-22.813l11.691-6.812a204 204 0 0 1-3.726-16.84l-11.797 5.89a229 229 0 0 1-2.844-24.37l11.809-4.638c-.399-5.824-.57-11.73-.512-17.707l-11.746 3.696c.117-8.301.66-16.785 1.605-25.215m1499.41-472.672 40.337-34.254q6.032-5.012 10.207-9.11c2.793-2.722 5.05-5.316 6.789-7.761 1.722-2.457 2.984-4.852 3.761-7.191q1.175-3.504 1.176-7.524c0-5.785-1.824-10.27-5.45-13.449-3.624-3.176-8.112-4.758-13.472-4.758-5.347 0-10.07 1.45-14.14 4.352q-6.102 4.353-12.977 13.218l-14.559-11.382c2.782-3.907 5.63-7.403 8.54-10.5q4.342-4.642 9.453-7.766c3.406-2.078 7.144-3.687 11.215-4.816 4.07-1.125 8.73-1.692 13.972-1.692 5.805 0 11.102.844 15.91 2.516 4.801 1.672 8.871 4.074 12.211 7.195 3.36 3.13 5.95 6.84 7.785 11.133 1.848 4.293 2.77 9.066 2.77 14.309 0 4.691-.625 8.875-1.852 12.558-1.222 3.68-3.086 7.254-5.601 10.711q-3.767 5.186-9.543 10.547c-3.856 3.57-8.348 7.477-13.477 11.71l-24.101 20.09h55.734v18.079h-84.687Zm216.587-65.89q3.688-11.129 10.382-19.333a49 49 0 0 1 16.157-12.968c6.289-3.184 13.293-4.774 21-4.774 7.695 0 14.675 1.567 20.925 4.692 6.243 3.117 11.598 7.418 16.067 12.886q6.698 8.206 10.297 19.246 3.597 11.045 3.597 23.602c0 8.371-1.238 16.266-3.687 23.687-2.45 7.422-5.922 13.864-10.371 19.332-4.469 5.465-9.856 9.793-16.157 12.97-6.304 3.183-13.308 4.773-21.003 4.773-7.707 0-14.672-1.563-20.926-4.692-6.25-3.117-11.61-7.418-16.063-12.886-4.465-5.465-7.898-11.887-10.297-19.247-2.402-7.363-3.601-15.234-3.601-23.601q0-12.55 3.68-23.688m-114.97 0c2.466-7.418 5.923-13.863 10.388-19.332a49 49 0 0 1 16.152-12.968c6.289-3.184 13.297-4.774 21.004-4.774 7.695 0 14.672 1.567 20.926 4.692 6.242 3.117 11.597 7.418 16.062 12.886 4.469 5.47 7.898 11.887 10.3 19.246q3.6 11.045 3.599 23.602c0 8.371-1.239 16.266-3.688 23.687-2.453 7.422-5.922 13.864-10.375 19.332-4.465 5.465-9.852 9.793-16.152 12.97q-9.46 4.774-21.004 4.773c-7.707 0-14.672-1.563-20.926-4.692-6.254-3.117-11.613-7.418-16.066-12.886-4.465-5.465-7.899-11.887-10.297-19.247-2.399-7.363-3.598-15.234-3.598-23.601q.001-12.55 3.676-23.688m225.472-12.55c2.118-4.97 5.102-9.262 8.957-12.891 3.852-3.625 8.446-6.469 13.805-8.535 5.36-2.063 11.27-3.098 17.75-3.098 7.363 0 13.574 1.035 18.653 3.098q7.616 3.1 13.82 9.289 6.526 6.534 10.375 16.988c2.562 6.98 3.851 16.27 3.851 27.871 0 9.489-1.148 18.133-3.433 25.942q-3.443 11.725-9.875 20.175c-4.301 5.633-9.57 10.016-15.82 13.133q-9.381 4.694-21.094 4.692-12.21-.001-21.094-3.899a71.2 71.2 0 0 1-16.395-10.035l11.215-15.695c4.457 3.797 8.782 6.586 12.965 8.37q6.28 2.68 13.82 2.68c4.348 0 8.215-.898 11.625-2.695 3.407-1.789 6.301-4.343 8.704-7.648 2.398-3.301 4.27-7.227 5.613-11.77 1.34-4.543 2.117-9.5 2.348-14.883-2.91 3.57-6.625 6.532-11.141 8.872-4.516 2.343-9.953 3.52-16.32 3.52-6.25 0-11.907-.864-16.985-2.599q-7.618-2.594-13.05-7.527c-3.637-3.293-6.446-7.23-8.461-11.805-2.004-4.574-3.012-9.71-3.012-15.402q-.001-8.701 3.18-16.148M1458.077 2330.492a308.3 308.3 0 0 1-87.223 12.477 1152 1152 0 0 0 135.86-154.074c-27.031 18.378-58.84 29.671-91.41 32.46 46.527-32.816 84.46-77.71 109.054-129.062a397 397 0 0 1-97.066 36.246c78.934-71.445 126.363-176.52 127.738-282.977 18.703 94.61 59.168 184.848 117.367 261.747-27.16-2.688-53.488-13.325-74.894-30.254 18.695 51.09 52.777 96.433 96.66 128.593-34.637 5.848-71.023.903-102.844-13.98 28.848 44.074 71.196 79.18 119.848 99.36-50.285 4.113-101.863-9.872-143.191-38.817 27.328 39.523 61.222 74.492 99.87 103.043a431.7 431.7 0 0 0 81.364-98.957q-25.127-1.29-50.254-2.574c29.305-35.258 52.355-75.696 67.77-118.871 20.304 55.625 63.472 102.511 117.23 127.336-35.52-.926-70.734-11.622-100.766-30.602 32.383 48.352 82.383 84.621 138.395 100.398-33.61 2.957-67.895-2.043-99.262-14.476 16.406 33.691 54.192 55.719 91.594 53.39 37.402-2.328 72.164-28.863 84.27-64.332-27.747 2.032-55.93-2.246-81.825-12.41 29.95-18.535 56.203-43.02 76.782-71.601q-20.804 5.285-41.606 10.578l46.621-98.297c26.27 51.48 71.41 93.062 124.867 115.023-31.875-2.12-63.218-11.832-90.71-28.105 16.206 38.805 51.574 69.05 92.421 79.043-33.68 2.765-68.015-2.918-99.004-16.383 63.88 97.754 224.793 109.586 302.286 22.227-40.18 11.824-83.266 13.64-124.297 5.246 55.472-26.07 102.586-69.598 132.957-122.84-29.125 11.293-61.317 14.558-92.117 9.344 55.53-34.426 104.164-79.926 142.207-133.04a203 203 0 0 1-68.196 14.102c46.188-49.539 74.696-115.23 79.34-182.797 11.238 73.407 53.758 141.496 114.79 183.817-28.142 1.316-56.618-5.66-80.962-19.836 15.028 56.488 63.445 102.718 120.57 115.117a546.4 546.4 0 0 1-118.378 3.289c26.195 60.121 91.539 100.84 157.054 97.863-40.574 24.074-94.074 24.567-135.082 1.242 25.633 49.618 85.844 78.707 140.645 67.946 54.8-10.758 99.543-60.453 104.512-116.078-33 8.851-68.258 9.12-101.391.789 63.719-50.36 103.652-129.602 106.215-210.778 14.562 80.93 39.281 174.903 115.742 205.153-27.613 5.398-57.375-1.313-80-18.04 13.832 46.864 52.324 85.669 99.07 99.883q-41.163.13-82.332.266c.727 32.313 37.516 55.563 69.305 49.7 31.781-5.864 44.074-33.434 55.156-63.798 11.082-30.363 23.414-95.816 23.414-95.816s6.145 104.656 51.563 124.785c45.41 20.125 104.832-1.207 127.074-45.62-31.293 10.687-66.348 9.944-97.156-2.056 50.347-18.91 92.093-59.566 112.328-109.394q-28.499-.343-56.992-.688c49.941-29.273 93-70.222 124.742-118.64l-74.04 17.152c48.356-31.367 81.743-84.816 88.712-142.035 16.14 50.23 44.797 96.387 82.656 133.133l-28.125-5.614c18.57 43.536 57.266 77.989 102.656 91.399-43.77 13.976-93.996 5.894-131.168-21.113 32.477 57.023 91.07 98.457 155.653 110.082-33.766 10.988-71.125 10.593-104.653-1.102 13.844 56.957 73.754 98.73 131.985 92.027 58.23-6.699 107.086-60.992 107.628-119.605-31.503 9.062-65.082 10.84-97.37 5.152 61.312-26.761 109.972-81.062 129.87-144.933-32.246 25.394-78.214 32.113-116.378 17.011 60.722-25.394 108.218-80.414 124.476-144.191-28.73 14.969-61.265 22.555-93.656 21.84 42.742-40.102 74.644-91.645 91.476-147.785a204 204 0 0 1-69.378 31.828c58.027-55.082 92.718-134 94.07-213.996 12.62 85.656 55.437 166.554 119.164 225.164-27.86 8.36-60.469-2.91-77.227-26.688 25.16 58.032 70.153 107.242 125.703 137.485-35.234 14.34-77.968 8.265-107.812-15.317 23.031 69.356 86.574 123.563 158.695 135.375-42.48 27.582-100.746 28.578-144.14 2.457 27.902 55.266 83.773 95.477 145.039 104.387-44.301 28.797-100.34 38.906-151.91 27.395 41.128 63.128 116.054 102.73 191.382 101.152-58.023 20.515-123.336 19.668-180.804-2.352 70.707 59.89 130.89 85.336 223.449 89.625h32.871V1370.81l-428.75-427.016-212.04 214.406L2592 388.352l-663.84 769.847-212.035-214.406-428.75 427.016v1032.886h59.242c15.262-15.433 75.078-30.566 111.461-73.203"/><path fill="#fff" d="M3712.492 1340.379c3.692 0 7.031-.559 9.992-1.676 2.961-1.11 5.489-2.648 7.555-4.601 2.078-1.954 3.648-4.211 4.707-6.782 1.059-2.562 1.594-5.297 1.594-8.199q0-4.687-1.758-8.617a20.9 20.9 0 0 0-4.953-6.867c-2.129-1.95-4.707-3.489-7.73-4.606-3.028-1.11-6.38-1.672-10.083-1.672-7.386 0-13.128 2.121-17.21 6.364-4.098 4.242-6.137 9.43-6.137 15.566 0 6.25 2.152 11.324 6.468 15.227 4.313 3.914 10.168 5.863 17.555 5.863m-238.035 29.539c2.613 3.855 5.777 6.867 9.453 9.043 3.688 2.172 7.809 3.266 12.39 3.266 4.567 0 8.677-1.094 12.302-3.266q5.438-3.266 9.289-8.957c2.566-3.793 4.543-8.227 5.945-13.305 1.39-5.078 2.094-10.52 2.094-16.32 0-5.805-.703-11.274-2.094-16.402-1.402-5.137-3.406-9.602-6.035-13.391q-3.927-5.688-9.453-9.04c-3.676-2.234-7.813-3.35-12.38-3.35-4.581 0-8.675 1.093-12.312 3.269-3.625 2.172-6.726 5.129-9.293 8.867-2.562 3.738-4.539 8.18-5.93 13.305-1.402 5.136-2.093 10.605-2.093 16.406 0 5.914.691 11.414 2.094 16.484 1.39 5.086 3.394 9.543 6.023 13.391m114.965 0c2.613 3.855 5.781 6.867 9.457 9.043 3.684 2.172 7.809 3.266 12.387 3.266 4.57 0 8.675-1.094 12.3-3.266 3.625-2.176 6.727-5.164 9.29-8.957 2.566-3.793 4.542-8.227 5.945-13.305 1.39-5.078 2.094-10.52 2.094-16.32 0-5.805-.704-11.274-2.094-16.402-1.403-5.137-3.406-9.602-6.035-13.391q-3.922-5.688-9.454-9.04c-3.675-2.234-7.808-3.35-12.378-3.35-4.582 0-8.676 1.093-12.313 3.269-3.621 2.172-6.723 5.129-9.289 8.867-2.562 3.738-4.539 8.18-5.934 13.305-1.402 5.136-2.093 10.605-2.093 16.406 0 5.914.691 11.414 2.093 16.484 1.395 5.086 3.395 9.543 6.024 13.391M2592 3931.648l819.086-472.902H1772.91Zm-2136.02-906.23c7.497 7.496 16.227 13.375 26.227 17.61 9.988 4.25 20.723 6.37 32.219 6.37h111.66c11.988 0 24.726-.996 38.21-3 13.493-1.988 24.231-8.988 32.224-20.98 2.496 5.504 6.75 9.871 12.742 13.113 5.996 3.254 12.855 5.625 20.605 7.121 7.738 1.5 15.856 2.504 24.356 3a424 424 0 0 0 24.734.746h26.969v-184.34h-124.39v68.938c0 4.004-1.38 7.625-4.118 10.867-2.758 3.254-6.371 4.867-10.867 4.867h-92.168q-6.751.002-11.621-4.496c-3.254-2.992-4.871-6.742-4.871-11.238V2620.02c0-4.497 1.617-8.247 4.87-11.239q4.871-4.5 11.622-4.5h92.168c4.496 0 8.11 1.625 10.867 4.871 2.738 3.254 4.117 6.875 4.117 10.868v69.69h124.39v-185.093h-26.968c-8 0-16.242.258-24.734.746-8.5.504-16.618 1.5-24.356 3-7.75 1.5-14.61 3.875-20.605 7.121-5.992 3.254-10.246 7.621-12.742 13.114-7.993-11.993-18.73-18.977-32.223-20.98-13.485-1.993-26.223-3-38.211-3h-111.66c-11.496 0-22.23 2.245-32.219 6.741-10 4.5-18.73 10.496-26.227 17.985q-11.245 11.245-17.609 26.234c-4.25 9.996-6.371 20.48-6.371 31.469v379.922c0 11.496 2.121 22.234 6.371 32.222 4.242 9.997 10.113 18.73 17.61 26.227m641.453-421.137h11.238l44.21 205.32h-100.41Zm-40.465 345.453H1022.5l11.242-53.953h137.88l11.983 53.953h-34.464v99.664h197.074v-99.664h-40.465l-82.426-345.453h44.961v-99.664H939.32v99.664h44.961l-83.926 345.453h-40.464v99.664h197.078Zm895.472-345.453v-99.664h-168.605L1671.43 2742.16l-110.907-237.543h-169.351v99.664h36.719v345.453h-36.72v99.664h192.587v-99.664h-36.719V2727.93l120.649 247.28h8.242l120.644-247.28v221.804h-36.719v99.664h192.586v-99.664h-36.718v-345.453Zm237.532 205.321 44.96-205.32h11.239l44.21 205.32Zm96.664 239.796h197.078v-99.668h-40.461l-82.43-345.449h44.961v-99.664H2076.82v99.664h44.961l-83.926 345.45h-40.464v99.667h197.078v-99.668H2160l11.242-53.949h137.875l11.988 53.95h-34.468Zm624.218-359.688v-185.093h-26.98c-7.992 0-16.242.258-24.727.746-8.503.504-16.613 1.5-24.351 3-7.754 1.496-14.613 3.875-20.61 7.121-5.996 3.254-10.246 7.621-12.738 13.114-4.008-5.996-9.12-10.614-15.367-13.868a78.8 78.8 0 0 0-19.855-7.113 121 121 0 0 0-20.98-2.625c-7-.242-13.485-.375-19.485-.375h-109.407c-11.984 0-22.984 2.246-32.968 6.742-10.004 4.5-18.617 10.496-25.852 17.985-7.246 7.496-13 16.242-17.238 26.23-4.25 10-6.367 20.485-6.367 31.473v107.16c0 14.492 2.363 26.227 7.113 35.215q7.118 13.49 26.605 26.23l198.579 124.391c3.992 2.508 6 6.504 6 11.988v41.961q0 6.752-4.5 11.242-4.5 4.498-10.497 4.496h-84.671c-4.008 0-7.38-1.613-10.114-4.867-2.758-3.242-4.125-6.863-4.125-10.87v-68.934h-124.39v184.34h26.976q11.235 0 24.356-.747 13.095-.75 24.726-3c7.739-1.5 14.61-3.867 20.606-7.12 6-3.243 10.234-7.606 12.742-13.114 3.992 5.996 8.73 10.617 14.238 13.863 5.485 3.254 11.36 5.617 17.61 7.117a97.3 97.3 0 0 0 19.101 2.625c6.488.258 12.742.375 18.738.375h115.403c10.98 0 21.472-2.12 31.469-6.37 9.992-4.235 18.738-10.114 26.226-17.61 7.496-7.496 13.492-16.23 17.992-26.227 4.489-9.988 6.742-20.726 6.742-32.222v-104.907c0-14.488-2.136-26.234-6.37-35.222-4.25-8.996-13.376-17.727-27.352-26.227l-212.817-128.14c-4.007-2.496-5.996-6.489-5.996-11.989v-40.464c0-4.497 1.5-8.247 4.496-11.239 3-3 6.489-4.5 10.489-4.5h98.168q6.743.001 10.867 4.871c2.742 3.254 4.12 6.875 4.12 10.868v69.69Zm494.551 14.985c0 4.496-1.496 8.371-4.496 11.614-3 3.253-6.742 4.87-11.238 4.87h-106.41v-116.898h106.41c4.496 0 8.238 1.5 11.238 4.5 3 2.992 4.496 6.742 4.496 11.239Zm0 229.297q.002 6.752-4.496 11.242c-3 3-6.742 4.496-11.238 4.496h-106.41v-137.875h106.41c4.496 0 8.238 1.625 11.238 4.872 3 3.253 4.496 6.867 4.496 10.859Zm122.149 65.2c4.496-9.989 6.742-20.727 6.742-32.223v-134.133c0-6.484-1.383-13.23-4.125-20.234a83 83 0 0 0-10.86-19.485c-4.5-5.996-9.742-11.355-15.738-16.11q-8.992-7.105-17.984-10.866c12.98-5.493 23.601-14.48 31.847-26.98 8.243-12.477 12.364-25.474 12.364-38.966v-113.148c0-10.985-2.13-21.473-6.371-31.473-4.25-9.988-10.114-18.734-17.61-26.23q-11.238-11.234-26.226-17.985-14.993-6.743-32.223-6.742h-325.223v99.664h36.723v345.45h-36.723v99.667h328.223c10.984 0 21.602-2.12 31.848-6.37 10.23-4.235 19.226-10.114 26.972-17.61 7.743-7.496 13.864-16.23 18.364-26.227m272.008-394.91v-99.664h-205.325v99.664h40.461v345.453h-40.46v99.664h205.323v-99.664h-41.214v-345.453Zm254.027 0v-99.664h-201.574v99.664h41.96v345.453h-41.96v99.664h201.574v-99.664h-37.465v-77.187l59.945-71.934 67.446 149.121h-32.97v99.664h202.321v-99.664h-40.465l-110.152-233.8 100.414-111.653h41.961v-99.664h-197.078v99.664h31.469l-122.891 139.38v-139.38ZM4752 2689.71v-185.093h-390.418v99.664h36.719v345.45h-36.719v99.667H4752v-184.34h-120.648v84.672h-109.407v-123.644h138.63v-92.168h-138.63v-129.637h109.407v85.43Zm-1574.672 586.81c0-2.454 1.227-4.754 3.668-6.934l15.086-14.676 47.281 54.215-13.86 14.676q-3.261 3.263-7.339 3.262h-36.277q-3.27-.001-5.907-2.446-2.653-2.454-2.652-6.113Zm-57.887-26.5c-2.988 4.347-4.48 10.464-4.48 18.34v68.081c0 6.247 1.152 12.09 3.465 17.528 2.308 5.433 5.504 10.187 9.574 14.27 4.082 4.07 8.828 7.265 14.27 9.573 5.437 2.313 11.28 3.465 17.527 3.465h77.043q5.707-.001 9.984-1.226c2.856-.809 5.508-1.961 7.953-3.465 2.446-1.492 4.887-3.395 7.344-5.703 2.445-2.305 5.152-4.957 8.149-7.953l10.597-11.004 25.68 29.351h58.297v-54.215h-22.828l-15.493-17.527 20.79-20.793h17.53v-54.215h-49.734l-28.535 28.535-81.531-93.343c-.809-.82-1.219-1.969-1.219-3.465v-18.547c0-2.453.469-4.488 1.426-6.113.953-1.637 2.512-2.446 4.691-2.446h44.426c2.445 0 4.082.883 4.899 2.645.808 1.77 1.218 3.738 1.218 5.914v37.496h64.809v-100.281h-13.856c-4.074 0-8.296.144-12.632.41-4.356.277-8.504.816-12.43 1.637-3.95.808-7.344 2.101-10.195 3.87-2.856 1.77-4.965 4.145-6.317 7.134q-3.27-4.891-7.953-7.543-4.695-2.639-9.777-3.871a53.6 53.6 0 0 0-10.395-1.426 272 272 0 0 0-10.195-.211h-53.809q-9.384.001-17.527 3.672c-5.441 2.445-10.187 5.707-14.27 9.789-4.078 4.07-7.273 8.836-9.574 14.265q-3.466 8.163-3.465 17.122v41.164c0 4.632 1.02 9.113 3.055 13.46 2.035 4.344 4.137 7.743 6.317 10.184l15.082 16.305-24.454 24.055c-5.98 5.707-10.468 10.738-13.457 15.082m542.563-164.688q-6.93.414-13.25 1.637c-4.215.808-7.95 2.101-11.215 3.87-3.25 1.77-5.57 4.15-6.922 7.134q-3.269-4.891-8.36-7.543a43.2 43.2 0 0 0-10.804-3.871 66.3 66.3 0 0 0-11.414-1.426 306 306 0 0 0-10.598-.211h-59.511c-6.524 0-12.508 1.23-17.938 3.672q-8.163 3.667-14.058 9.789c-3.946 4.07-7.075 8.836-9.38 14.265q-3.461 8.163-3.46 17.122v58.285c0 7.886 1.285 14.265 3.87 19.164q3.867 7.333 14.47 14.27l108.02 67.663q3.261 2.04 3.26 6.524v22.828c0 2.441-.808 4.48-2.444 6.113q-2.438 2.445-5.707 2.445H3560.5c-2.18 0-4.016-.874-5.5-2.652-1.5-1.762-2.242-3.73-2.242-5.906V3281h-67.664v100.277h14.668c4.078 0 8.492-.132 13.246-.41 4.758-.265 9.238-.816 13.46-1.625 4.204-.82 7.942-2.101 11.204-3.87q4.894-2.657 6.933-7.134c2.168 3.25 4.747 5.774 7.743 7.532a34.5 34.5 0 0 0 9.578 3.882 53.7 53.7 0 0 0 10.394 1.426q5.3.2 10.2.2h62.773q8.96 0 17.121-3.462c5.43-2.312 10.188-5.507 14.266-9.578 4.07-4.082 7.332-8.836 9.777-14.27 2.445-5.437 3.672-11.277 3.672-17.527v-57.07c0-7.883-1.16-14.266-3.461-19.164q-3.47-7.332-14.887-14.266l-115.761-69.699c-2.18-1.36-3.262-3.531-3.262-6.523v-22.012c0-2.453.816-4.488 2.445-6.117 1.637-1.633 3.527-2.442 5.703-2.442h53.399c2.453 0 4.422.883 5.918 2.645q2.24 2.65 2.242 5.914v37.902h67.664v-100.687h-14.676c-4.348 0-8.836.144-13.45.41m212.368 139.418c0 2.176-.883 4.07-2.644 5.707-1.77 1.625-3.868 2.441-6.313 2.441h-54.227v-93.75h54.227c2.445 0 4.543.809 6.313 2.446q2.643 2.436 2.644 6.113Zm54.215-126.367q-6.104-6.122-14.266-9.79c-5.43-2.445-11.28-3.671-17.52-3.671h-173.25v54.226h19.977v187.914h-19.566v54.215h106.805v-54.215h-19.579v-39.945h85.614c6.238 0 12.09-1.152 17.52-3.465q8.16-3.468 14.265-9.586 6.123-6.106 9.586-14.27c2.305-5.429 3.465-11.269 3.465-17.515V3129.77c0-5.973-1.16-11.68-3.465-17.122-2.309-5.43-5.504-10.195-9.586-14.265m197.285 220.121c0 2.441-.809 4.476-2.445 6.113-1.625 1.63-3.805 2.445-6.516 2.445h-56.668c-2.176 0-4.148-.816-5.906-2.445q-2.655-2.454-2.656-6.113v-170.797q0-3.678 2.656-6.113c1.758-1.637 3.73-2.446 5.906-2.446h56.668c2.711 0 4.89.809 6.516 2.446 1.636 1.625 2.445 3.66 2.445 6.113Zm57.277-220.121c-3.949-4.082-8.628-7.344-14.07-9.79-5.437-2.44-11.277-3.671-17.527-3.671H4026c-6.246 0-12.086 1.23-17.527 3.672-5.442 2.445-10.188 5.707-14.266 9.789-4.074 4.07-7.266 8.836-9.578 14.265-2.313 5.442-3.465 11.149-3.465 17.122v206.671c0 6.247 1.152 12.09 3.465 17.528q3.468 8.147 9.578 14.27c4.078 4.07 8.824 7.265 14.266 9.573 5.441 2.313 11.28 3.465 17.527 3.465h125.55c6.25 0 12.09-1.152 17.528-3.465 5.442-2.308 10.121-5.503 14.07-9.574q5.909-6.121 9.38-14.27c2.3-5.437 3.46-11.28 3.46-17.527V3129.77c0-5.973-1.16-11.68-3.46-17.122-2.313-5.43-5.442-10.195-9.38-14.265m203.61 113.727c0 2.175-.899 4.077-2.656 5.706-1.77 1.625-3.872 2.446-6.317 2.446h-59.52v-81.114h59.52c2.445 0 4.547.809 6.317 2.446 1.757 1.625 2.656 3.66 2.656 6.113Zm26.078 59.511c4.898-1.086 9.789-2.984 14.676-5.707 4.898-2.71 9.234-5.973 13.05-9.777a46.2 46.2 0 0 0 9.168-13.051 35.9 35.9 0 0 0 3.461-15.484v-97.832c0-5.973-1.16-11.68-3.46-17.122-2.313-5.43-5.508-10.195-9.579-14.265-4.078-4.082-8.836-7.344-14.265-9.79-5.442-2.44-11.149-3.671-17.121-3.671h-178.137v54.226h19.973v187.914h-19.973v54.215h107.21v-54.215h-19.573v-54.624h22.02l51.359 108.84h74.187v-54.215h-23.234Zm77.461-65.219h61.555v-67.254h34.652v187.914h-22.828v54.215h115.351v-54.215h-23.226v-187.914h35.05v67.254H4752v-121.476h-261.703Zm-2161.347-25.539h-31.509c-1.21 0-2.304.45-3.285 1.36-.984.906-1.476 2.035-1.476 3.402v94.957q0 2.04 1.476 3.398 1.47 1.362 3.285 1.364h31.508c1.504 0 2.715-.457 3.621-1.364.91-.906 1.36-2.039 1.36-3.398v-94.957c0-1.367-.45-2.496-1.36-3.402-.906-.91-2.117-1.36-3.62-1.36m-1527.528 0h-33.094v104.48h33.094q1.81-.001 3.281-1.363 1.477-1.36 1.477-3.398v-94.957c0-1.367-.492-2.496-1.477-3.402-.98-.91-2.074-1.36-3.281-1.36m434.453 0-13.594 62.098h30.367l-13.37-62.098Zm545.973 0h-33.094v45.098h33.094q2.037 0 3.511-1.36c.98-.902 1.477-1.96 1.477-3.171v-35.805c0-1.367-.496-2.496-1.477-3.402-.984-.91-2.152-1.36-3.511-1.36m224.144 0h-33.094v104.48h33.094q1.81-.001 3.285-1.363 1.477-1.36 1.477-3.398v-94.957c0-1.367-.492-2.496-1.477-3.402-.984-.91-2.078-1.36-3.285-1.36m-1428.715 0h-33.093v45.098h33.093q2.038 0 3.512-1.36c.977-.902 1.477-1.96 1.477-3.171v-35.805c0-1.367-.5-2.496-1.477-3.402-.984-.91-2.152-1.36-3.512-1.36"/><path fill="#fff" d="M3017.012 3315.484h-35.13v-30.14h35.13Zm-47.145-134.62h-11.105v134.62h-36.942l-46.683-98.132v67.992h11.105v30.14h-58.023v-30.14h11.332v-104.48h-11.332v-30.15h50.09l45.097 94.966v-64.817h-11.105v-30.148h57.566Zm-160.906 25.831h-36.488v-25.832h-33.09v39.207h41.926v27.875h-41.926v37.399h33.09v-25.614h36.488v55.754h-118.082v-30.14h11.105v-104.48h-11.105v-30.15h118.082Zm-135.078 11.563h-33.996v-37.395h-19.489v104.48h12.914v30.141h-64.132v-30.14h12.687v-104.48h-19.262v37.394h-34.226v-67.543h145.504Zm-163.625-11.563h-36.488v-25.832h-33.09v39.207h41.925v27.875h-41.925v37.399h19.261v30.14h-67.765v-30.14h11.105v-104.48h-11.105v-30.15h118.082Zm-137.344 83.86q-.001 5.212-1.926 9.746-1.927 4.53-5.215 7.933c-2.195 2.262-4.796 4.04-7.82 5.325q-4.535 1.926-9.746 1.925h-69.805c-3.472 0-6.718-.64-9.746-1.925a25 25 0 0 1-7.933-5.325 25 25 0 0 1-5.325-7.933c-1.285-3.024-1.921-6.27-1.921-9.746v-114.907c0-3.32.636-6.492 1.921-9.52 1.286-3.019 3.063-5.667 5.325-7.929 2.27-2.27 4.91-4.082 7.933-5.441q4.54-2.042 9.746-2.043h69.805q5.21.002 9.746 2.043c3.024 1.36 5.625 3.172 7.82 5.441 2.192 2.262 3.93 4.91 5.215 7.93a24.2 24.2 0 0 1 1.926 9.52Zm-187.43-83.86h-36.488v-25.832h-33.09v39.207h41.926v27.875h-41.926v37.399h33.09v-25.614h36.488v55.754h-118.078v-30.14h11.106v-104.48h-11.106v-30.15h118.078Zm-137.34 83.86q-.002 5.212-1.925 9.746c-1.285 3.02-3.063 5.664-5.324 7.933-2.27 2.262-4.915 4.04-7.934 5.325q-4.534 1.926-9.746 1.925h-99.04v-30.14h11.106v-104.48h-11.105v-30.15h99.039q5.213.002 9.746 2.044 4.53 2.039 7.934 5.441c2.261 2.262 4.039 4.91 5.324 7.93a24.2 24.2 0 0 1 1.926 9.52Zm-139.835-109.692h-12.461v104.48h12.46v30.141h-62.097v-30.14h12.234v-104.48h-12.234v-30.15h62.098Zm-77.508 134.621h-41.246l-28.559-60.511h-12.242v30.37h10.887v30.141h-59.61v-30.14h11.106v-104.48h-11.106v-30.15h99.04q4.985.002 9.519 2.044 4.53 2.039 7.933 5.441c2.262 2.262 4.04 4.91 5.325 7.93a24.2 24.2 0 0 1 1.925 9.52v54.394c0 3.027-.644 5.89-1.925 8.61a25.7 25.7 0 0 1-5.098 7.253 32.5 32.5 0 0 1-7.254 5.438q-4.077 2.268-8.16 3.172l16.547 30.828h12.918Zm-194.223 0h-35.129v-30.14h35.13Zm-85.215-134.62v104.48h12.914v30.14h-64.132v-30.14h12.69v-104.48h-19.265v37.394h-34.226v-67.543h145.504v67.543h-33.996v-37.395Zm-111.054 25.831h-37.621v-21.074q-.001-1.814-1.25-3.289c-.829-.977-1.922-1.469-3.29-1.469h-29.687c-1.211 0-2.262.45-3.172 1.36-.906.906-1.36 2.035-1.36 3.398v12.238c0 1.668.602 2.871 1.813 3.63l64.363 38.75c4.23 2.57 6.993 5.214 8.278 7.933 1.277 2.723 1.926 6.27 1.926 10.656v31.727c0 3.476-.684 6.722-2.043 9.746q-2.04 4.53-5.438 7.933a25 25 0 0 1-7.93 5.325 24.1 24.1 0 0 1-9.52 1.925h-34.901q-2.726.002-5.668-.113a29 29 0 0 1-5.782-.793 19 19 0 0 1-5.324-2.156c-1.668-.977-3.101-2.379-4.305-4.188-.757 1.66-2.043 2.985-3.855 3.965-1.813.985-3.895 1.7-6.23 2.153a57 57 0 0 1-7.485.906c-2.64.152-5.098.226-7.363.226h-8.156v-55.754h37.62v20.852c0 1.211.41 2.305 1.25 3.285.825.988 1.844 1.477 3.055 1.477h25.61c1.21 0 2.27-.457 3.172-1.36q1.364-1.364 1.363-3.402v-12.691q0-2.49-1.816-3.63l-60.06-37.616q-5.892-3.855-8.042-7.934c-1.438-2.723-2.152-6.273-2.152-10.656v-32.407q-.001-4.979 1.925-9.52c1.282-3.019 3.02-5.667 5.215-7.929q3.276-3.404 7.817-5.441 4.53-2.042 9.972-2.043h33.086c1.817 0 3.778.043 5.895.117a36.7 36.7 0 0 1 6.343.793 24 24 0 0 1 6.008 2.152c1.887.985 3.438 2.38 4.649 4.196.75-1.664 2.039-2.985 3.851-3.97 1.813-.98 3.89-1.702 6.235-2.151a57 57 0 0 1 7.363-.91c2.566-.145 5.062-.227 7.48-.227h8.16Zm-129.188 108.79h-59.601v-30.141h10.421l-3.629-16.32h-41.703l-3.394 16.32h10.426v30.14h-59.61v-30.14h12.242l25.383-104.48h-13.601v-30.15h99.496v30.15h-13.598l24.934 104.48h12.234Zm-147.539-108.79h-36.488v-25.832h-33.09v39.207h41.926v27.875h-41.926v37.399h19.262v30.14h-67.762v-30.14h11.101v-104.48h-11.101v-30.15h118.078Zm-182.672 0h-36.484v-25.832h-33.09v39.207h41.926v27.875h-41.926v37.399h33.09v-25.614h36.484v55.754H862.832v-30.14h11.106v-104.48h-11.106v-30.15H980.91Zm-137.336 83.86q-.001 5.212-1.926 9.746-1.93 4.53-5.324 7.933a25 25 0 0 1-7.933 5.325q-4.537 1.926-9.746 1.925h-99.043v-30.14h11.109v-104.48H719.6v-30.15h99.044q5.209.002 9.746 2.044 4.53 2.039 7.933 5.441c2.262 2.262 4.04 4.91 5.324 7.93a24.2 24.2 0 0 1 1.926 9.52Zm-139.836-109.692h-12.465v104.48h12.465v30.141h-62.097v-30.14h12.234v-104.48h-12.234v-30.15h62.097Zm-77.508 134.621h-41.25l-28.554-60.511h-12.242v30.37h10.882v30.141h-59.609v-30.14h11.106v-104.48h-11.106v-30.15H594.5q4.979.002 9.52 2.044 4.53 2.039 7.933 5.441c2.262 2.262 4.04 4.91 5.324 7.93a24.2 24.2 0 0 1 1.922 9.52v54.394c0 3.027-.644 5.89-1.922 8.61a25.7 25.7 0 0 1-5.097 7.253 32.4 32.4 0 0 1-7.258 5.438q-4.073 2.268-8.156 3.172l16.543 30.828h12.921Zm2439.08-230.914H432v296.707h2633.309Zm0 0"/></svg>