<?xml version="1.0" encoding="UTF-8"?>
<svg xmlns="http://www.w3.org/2000/svg" xmlns:xlink="http://www.w3.org/1999/xlink" width="500pt" height="200pt" viewBox="0 0 500 200">
<path fill-rule="nonzero" fill="rgb(0%, 0%, 0%)" fill-opacity="1" d="M 316.921875 56.703125 C 316.921875 77.722656 299.824219 94.824219 278.808594 94.824219 L 278.785156 94.820312 C 272.554688 94.808594 211.449219 86.835938 207.800781 86.359375 C 193.003906 84.589844 181.488281 71.964844 181.488281 56.703125 C 181.488281 41.472656 192.945312 28.875 207.691406 27.0625 C 207.691406 27.0625 271.242188 18.765625 278.644531 18.605469 L 278.808594 18.585938 C 299.824219 18.585938 316.921875 35.683594 316.921875 56.703125 M 278.867188 28.746094 C 273.871094 28.855469 233.367188 33.9375 209.003906 37.117188 L 208.96875 37.121094 L 208.929688 37.128906 C 199.070312 38.34375 191.636719 46.757812 191.636719 56.703125 C 191.636719 66.6875 199.101562 75.101562 209 76.285156 L 209.0625 76.292969 L 209.113281 76.300781 C 240.59375 80.414062 274.648438 84.613281 278.820312 84.679688 L 278.890625 84.679688 C 294.277344 84.628906 306.785156 72.101562 306.785156 56.703125 C 306.785156 41.410156 294.445312 28.949219 279.203125 28.738281 C 279.050781 28.742188 278.867188 28.746094 278.867188 28.746094 "/>
<path fill-rule="nonzero" fill="rgb(0%, 0%, 0%)" fill-opacity="1" d="M 201.324219 56.789062 C 201.324219 64.078125 207.226562 69.980469 214.515625 69.980469 C 221.796875 69.980469 227.707031 64.078125 227.707031 56.789062 C 227.707031 49.5 221.796875 43.597656 214.515625 43.597656 C 207.226562 43.597656 201.324219 49.5 201.324219 56.789062 "/>
<path fill-rule="nonzero" fill="rgb(0%, 0%, 0%)" fill-opacity="1" d="M 258.796875 56.789062 C 258.796875 67.316406 267.324219 75.847656 277.855469 75.847656 C 288.378906 75.847656 296.910156 67.316406 296.910156 56.789062 C 296.910156 46.261719 288.378906 37.730469 277.855469 37.730469 C 267.324219 37.730469 258.796875 46.261719 258.796875 56.789062 "/>
<path fill-rule="nonzero" fill="rgb(0%, 0%, 0%)" fill-opacity="1" d="M 42.640625 181.765625 C 31.699219 181.765625 24.589844 173.84375 24.589844 161.347656 C 24.589844 148.605469 31.773438 140.4375 42.964844 140.4375 C 52.03125 140.4375 57.996094 145.339844 58.96875 153.589844 L 55.871094 153.589844 C 54.480469 146.726562 50.074219 143.050781 42.964844 143.050781 C 33.734375 143.050781 27.773438 150.15625 27.773438 161.1875 C 27.773438 172.042969 33.648438 179.3125 42.558594 179.3125 C 50.074219 179.3125 55.214844 174.660156 56.195312 166.980469 L 59.300781 166.980469 C 58.078125 176.378906 51.949219 181.765625 42.640625 181.765625 "/>
<path fill-rule="nonzero" fill="rgb(0%, 0%, 0%)" fill-opacity="1" d="M 85.605469 144.355469 L 84.453125 144.355469 C 80.046875 144.355469 76.210938 146.238281 73.675781 149.664062 C 71.144531 153.09375 70.410156 156.117188 70.410156 163.800781 L 70.410156 180.707031 L 67.304688 180.707031 L 67.304688 141.582031 L 70.324219 141.582031 L 70.324219 151.871094 C 71.957031 147.625 73.511719 145.503906 76.289062 143.625 C 78.816406 141.988281 81.515625 141.257812 85.347656 141.257812 L 85.605469 141.257812 Z M 85.605469 144.355469 "/>
<path fill-rule="nonzero" fill="rgb(0%, 0%, 0%)" fill-opacity="1" d="M 124.148438 180.460938 C 123.089844 180.707031 122.183594 180.871094 121.046875 180.871094 C 117.453125 180.871094 116.476562 179.394531 116.476562 174.003906 L 116.476562 172.453125 C 113.207031 178.90625 108.46875 181.765625 101.199219 181.765625 C 93.035156 181.765625 88.214844 177.757812 88.214844 170.90625 C 88.214844 163.636719 93.195312 159.710938 103.242188 158.898438 L 110.757812 158.242188 C 115.085938 157.835938 116.308594 156.777344 116.308594 153.015625 C 116.308594 146.238281 112.796875 143.050781 105.203125 143.050781 C 97.855469 143.050781 94.007812 146.480469 93.359375 153.585938 L 90.417969 153.585938 C 90.910156 145.09375 96.296875 140.4375 105.53125 140.4375 C 110.503906 140.4375 114.835938 142.070312 117.125 144.683594 C 118.921875 146.808594 119.328125 148.523438 119.328125 153.917969 L 119.328125 174.089844 C 119.328125 177.433594 119.902344 178.335938 122.109375 178.335938 C 122.84375 178.335938 123.171875 178.253906 124.148438 178.007812 Z M 107.648438 161.097656 C 100.625 161.757812 98.746094 162.167969 96.140625 163.3125 C 93.195312 164.691406 91.5625 167.308594 91.5625 170.582031 C 91.5625 175.804688 95.484375 179.148438 101.609375 179.148438 C 110.101562 179.148438 116.308594 173.351562 116.308594 165.429688 L 116.308594 158.492188 C 114.917969 159.953125 113.046875 160.53125 107.648438 161.097656 "/>
<path fill-rule="nonzero" fill="rgb(0%, 0%, 0%)" fill-opacity="1" d="M 133.132812 150.15625 C 134.355469 147.460938 135.011719 146.488281 136.402344 145.007812 C 139.09375 142.15625 143.097656 140.523438 147.585938 140.523438 C 152.328125 140.523438 156.414062 142.316406 158.777344 145.503906 C 160.820312 148.195312 161.394531 150.402344 161.394531 155.792969 L 161.394531 180.707031 L 158.289062 180.707031 L 158.289062 156.613281 C 158.207031 152.519531 157.882812 150.566406 156.980469 148.765625 C 155.273438 145.339844 151.507812 143.296875 146.9375 143.296875 C 141.957031 143.296875 137.628906 145.664062 135.421875 149.664062 C 133.867188 152.605469 133.292969 155.304688 133.292969 160.449219 L 133.292969 180.707031 L 130.195312 180.707031 L 130.195312 141.578125 L 133.214844 141.578125 Z M 133.132812 150.15625 "/>
<path fill-rule="nonzero" fill="rgb(0%, 0%, 0%)" fill-opacity="1" d="M 185.734375 156.199219 L 204.027344 180.707031 L 200.1875 180.707031 L 183.367188 158.324219 L 174.460938 165.839844 L 174.460938 180.707031 L 171.515625 180.707031 L 171.515625 126.308594 L 174.460938 126.308594 L 174.460938 162.410156 C 175.277344 161.675781 175.84375 161.1875 176.257812 160.777344 C 176.910156 160.199219 177.3125 159.796875 177.644531 159.550781 L 198.636719 141.578125 L 202.878906 141.578125 Z M 185.734375 156.199219 "/>
<path fill-rule="nonzero" fill="rgb(0%, 0%, 0%)" fill-opacity="1" d="M 211.621094 150.8125 C 214.234375 143.871094 219.300781 140.273438 226.488281 140.273438 C 237.027344 140.273438 243.71875 148.359375 243.71875 161.097656 C 243.71875 173.921875 237.105469 181.847656 226.488281 181.847656 C 218.890625 181.847656 214.074219 178.585938 211.460938 171.3125 L 211.460938 180.707031 L 208.601562 180.707031 L 208.601562 126.308594 L 211.621094 126.308594 Z M 211.535156 161.023438 C 211.535156 172.125 217.257812 179.3125 226.246094 179.3125 C 234.980469 179.3125 240.609375 172.289062 240.609375 161.1875 C 240.609375 149.828125 235.0625 142.886719 226 142.886719 C 217.257812 142.886719 211.535156 150.074219 211.535156 161.023438 "/>
<path fill-rule="nonzero" fill="rgb(0%, 0%, 0%)" fill-opacity="1" d="M 270.675781 144.355469 L 269.527344 144.355469 C 265.125 144.355469 261.285156 146.238281 258.746094 149.664062 C 256.21875 153.09375 255.480469 156.117188 255.480469 163.800781 L 255.480469 180.707031 L 252.378906 180.707031 L 252.378906 141.582031 L 255.398438 141.582031 L 255.398438 151.871094 C 257.03125 147.625 258.582031 145.503906 261.363281 143.625 C 263.890625 141.988281 266.585938 141.257812 270.429688 141.257812 L 270.675781 141.257812 Z M 270.675781 144.355469 "/>
<path fill-rule="nonzero" fill="rgb(0%, 0%, 0%)" fill-opacity="1" d="M 309.710938 161.34375 C 309.710938 173.925781 302.691406 181.851562 291.582031 181.851562 C 280.550781 181.851562 273.449219 173.761719 273.449219 161.1875 C 273.449219 148.6875 280.71875 140.4375 291.660156 140.4375 C 302.609375 140.4375 309.710938 148.6875 309.710938 161.34375 M 276.546875 161.097656 C 276.546875 172.125 282.433594 179.230469 291.660156 179.230469 C 300.730469 179.230469 306.53125 172.210938 306.53125 161.34375 C 306.53125 150.320312 300.648438 143.132812 291.582031 143.132812 C 282.597656 143.132812 276.546875 150.320312 276.546875 161.097656 "/>
<path fill-rule="nonzero" fill="rgb(0%, 0%, 0%)" fill-opacity="1" d="M 332.417969 144.191406 L 324.085938 144.191406 L 324.085938 170.734375 C 324.007812 176.863281 324.902344 178.171875 329.234375 178.171875 C 330.050781 178.171875 330.945312 178.09375 332.417969 177.84375 L 332.417969 180.625 C 330.699219 180.871094 330.050781 180.871094 328.664062 180.871094 C 322.128906 180.871094 320.898438 179.066406 320.898438 169.59375 L 320.898438 144.191406 L 313.796875 144.191406 L 313.796875 141.582031 L 320.898438 141.582031 L 320.898438 129.332031 L 324.007812 129.332031 L 324.007812 141.582031 L 332.417969 141.582031 Z M 332.417969 144.191406 "/>
<path fill-rule="nonzero" fill="rgb(0%, 0%, 0%)" fill-opacity="1" d="M 342.628906 145.828125 L 342.546875 147.953125 L 342.546875 150.484375 C 343.605469 147.707031 344.585938 146.15625 346.136719 144.601562 C 348.832031 141.988281 352.421875 140.523438 356.507812 140.523438 C 361.65625 140.523438 365.746094 142.558594 368.269531 146.238281 C 369.902344 148.6875 370.558594 151.21875 370.558594 155.628906 L 370.558594 180.707031 L 367.457031 180.707031 L 367.457031 156.117188 C 367.371094 151.132812 366.554688 148.519531 364.1875 146.238281 C 362.066406 144.273438 359.210938 143.214844 355.941406 143.214844 C 350.796875 143.214844 346.628906 145.828125 344.425781 150.570312 C 343.117188 153.339844 342.628906 156.117188 342.628906 160.855469 L 342.628906 180.707031 L 339.523438 180.707031 L 339.523438 126.308594 L 342.628906 126.308594 Z M 342.628906 145.828125 "/>
<path fill-rule="nonzero" fill="rgb(0%, 0%, 0%)" fill-opacity="1" d="M 396.699219 182.007812 C 385.917969 182.007812 378.808594 174 378.808594 161.59375 C 378.808594 149.09375 386.078125 140.519531 396.699219 140.519531 C 407.144531 140.519531 413.847656 148.519531 413.847656 161.1875 L 413.847656 161.671875 L 382.15625 161.671875 C 382.15625 172.863281 387.628906 179.398438 396.699219 179.398438 C 403.882812 179.398438 408.867188 175.070312 410.335938 167.472656 L 413.363281 167.472656 C 411.800781 176.703125 405.679688 182.007812 396.699219 182.007812 M 396.609375 143.214844 C 391.632812 143.214844 387.140625 145.746094 384.6875 149.914062 C 382.976562 152.851562 382.570312 154.484375 382.074219 159.140625 L 410.660156 159.140625 C 410.167969 149.179688 404.863281 143.214844 396.609375 143.214844 "/>
<path fill-rule="nonzero" fill="rgb(0%, 0%, 0%)" fill-opacity="1" d="M 440.0625 144.355469 L 438.921875 144.355469 C 434.511719 144.355469 430.671875 146.238281 428.140625 149.664062 C 425.609375 153.09375 424.875 156.117188 424.875 163.800781 L 424.875 180.707031 L 421.765625 180.707031 L 421.765625 141.582031 L 424.792969 141.582031 L 424.792969 151.871094 C 426.421875 147.625 427.976562 145.503906 430.753906 143.625 C 433.285156 141.988281 435.980469 141.257812 439.816406 141.257812 L 440.0625 141.257812 Z M 440.0625 144.355469 "/>
<path fill-rule="nonzero" fill="rgb(0%, 0%, 0%)" fill-opacity="1" d="M 470.121094 153.015625 C 469.546875 146.238281 465.871094 143.214844 458.195312 143.214844 C 451.496094 143.214844 447.414062 146.078125 447.414062 150.8125 C 447.414062 155.390625 449.460938 156.691406 459.832031 159.058594 C 465.21875 160.289062 467.585938 161.097656 469.875 162.328125 C 472.730469 164.046875 474.449219 166.976562 474.449219 170.414062 C 474.449219 177.273438 468.160156 181.847656 459.011719 181.847656 C 448.804688 181.847656 443.167969 176.863281 442.925781 167.636719 L 446.027344 167.636719 C 446.191406 171.230469 446.597656 172.699219 447.90625 174.582031 C 450.03125 177.519531 454.03125 179.234375 458.929688 179.234375 C 466.367188 179.234375 471.261719 175.804688 471.261719 170.582031 C 471.261719 166.003906 468.734375 164.203125 459.179688 162.003906 C 452.398438 160.449219 450.597656 159.875 448.5625 158.730469 C 445.777344 157.261719 444.226562 154.484375 444.226562 151.136719 C 444.226562 144.523438 449.542969 140.519531 458.277344 140.519531 C 467.835938 140.519531 472.65625 144.523438 473.222656 153.015625 Z M 470.121094 153.015625 "/>
</svg>
