<svg xmlns="http://www.w3.org/2000/svg" width="500pt" height="200pt" viewBox="0 0 500 200"><path d="M316.922 56.703c0 21.02-17.098 38.121-38.113 38.121l-.024-.004c-6.23-.011-67.336-7.984-70.984-8.46-14.797-1.77-26.313-14.395-26.313-29.657 0-15.23 11.457-27.828 26.203-29.64 0 0 63.551-8.297 70.954-8.458l.164-.02c21.015 0 38.113 17.099 38.113 38.118m-38.055-27.957c-4.996.11-45.5 5.192-69.863 8.371l-.035.004-.04.008c-9.859 1.215-17.292 9.629-17.292 19.574 0 9.984 7.465 18.399 17.363 19.582l.063.008.05.008c31.48 4.113 65.535 8.312 69.707 8.379h.07c15.387-.051 27.895-12.578 27.895-27.977 0-15.293-12.34-27.754-27.582-27.965z"/><path d="M201.324 56.79c0 7.288 5.903 13.19 13.192 13.19 7.28 0 13.191-5.902 13.191-13.19 0-7.29-5.91-13.192-13.191-13.192-7.29 0-13.192 5.902-13.192 13.191m57.473.001c0 10.526 8.527 19.058 19.058 19.058 10.524 0 19.055-8.532 19.055-19.059s-8.53-19.059-19.055-19.059c-10.53 0-19.058 8.532-19.058 19.06M42.64 181.766c-10.94 0-18.05-7.922-18.05-20.418 0-12.743 7.183-20.91 18.375-20.91 9.066 0 15.031 4.902 16.004 13.152H55.87c-1.39-6.863-5.797-10.54-12.906-10.54-9.23 0-15.192 7.106-15.192 18.137 0 10.856 5.875 18.125 14.786 18.125 7.515 0 12.656-4.652 13.636-12.332H59.3c-1.223 9.399-7.352 14.786-16.66 14.786m42.965-37.411h-1.152c-4.406 0-8.242 1.883-10.777 5.31-2.531 3.429-3.266 6.452-3.266 14.136v16.906h-3.105v-39.125h3.02v10.29c1.632-4.247 3.187-6.368 5.964-8.247 2.527-1.637 5.227-2.367 9.059-2.367h.257Zm38.543 36.105c-1.058.247-1.964.411-3.101.411-3.594 0-4.57-1.476-4.57-6.867v-1.55c-3.27 6.452-8.008 9.312-15.278 9.312-8.164 0-12.984-4.008-12.984-10.86 0-7.27 4.98-11.195 15.027-12.008l7.516-.656c4.328-.406 5.55-1.465 5.55-5.226 0-6.778-3.511-9.965-11.105-9.965-7.348 0-11.195 3.43-11.844 10.535h-2.941c.492-8.492 5.879-13.149 15.113-13.149 4.973 0 9.305 1.633 11.594 4.247 1.797 2.125 2.203 3.84 2.203 9.234v20.172c0 3.344.574 4.246 2.781 4.246.735 0 1.063-.082 2.04-.328Zm-16.5-19.362c-7.023.66-8.902 1.07-11.507 2.214-2.946 1.38-4.579 3.997-4.579 7.27 0 5.223 3.922 8.566 10.047 8.566 8.493 0 14.7-5.796 14.7-13.718v-6.938c-1.391 1.461-3.262 2.04-8.66 2.606m25.484-10.942c1.222-2.695 1.879-3.668 3.27-5.148 2.69-2.852 6.695-4.485 11.183-4.485 4.742 0 8.828 1.793 11.191 4.98 2.043 2.692 2.618 4.9 2.618 10.29v24.914h-3.106v-24.094c-.082-4.093-.406-6.047-1.309-7.847-1.707-3.426-5.472-5.47-10.042-5.47-4.981 0-9.31 2.368-11.516 6.368-1.555 2.941-2.129 5.64-2.129 10.785v20.258h-3.098v-39.129h3.02Zm52.601 6.044 18.293 24.507h-3.84l-16.82-22.383-8.906 7.516v14.867h-2.945v-54.398h2.945v36.101c.816-.734 1.383-1.222 1.797-1.633.652-.578 1.054-.98 1.387-1.226l20.992-17.973h4.242Zm25.887-5.387c2.613-6.942 7.68-10.54 14.867-10.54 10.54 0 17.23 8.086 17.23 20.825 0 12.824-6.613 20.75-17.23 20.75-7.597 0-12.414-3.262-15.027-10.536v9.395h-2.86v-54.398h3.02Zm-.086 10.21c0 11.102 5.723 18.29 14.711 18.29 8.734 0 14.363-7.024 14.363-18.125 0-11.36-5.547-18.301-14.609-18.301-8.742 0-14.465 7.187-14.465 18.136m59.141-16.668h-1.149c-4.402 0-8.242 1.883-10.78 5.31-2.528 3.429-3.267 6.452-3.267 14.136v16.906h-3.101v-39.125h3.02v10.29c1.632-4.247 3.183-6.368 5.964-8.247 2.528-1.637 5.223-2.367 9.067-2.367h.246Zm39.034 16.989c0 12.582-7.019 20.508-18.128 20.508-11.031 0-18.133-8.09-18.133-20.665 0-12.5 7.27-20.75 18.211-20.75 10.95 0 18.05 8.25 18.05 20.907m-33.163-.246c0 11.027 5.887 18.132 15.113 18.132 9.07 0 14.871-7.02 14.871-17.886 0-11.024-5.883-18.211-14.949-18.211-8.984 0-15.035 7.187-15.035 17.965m55.871-16.907h-8.332v26.543c-.078 6.13.816 7.438 5.148 7.438.817 0 1.711-.078 3.184-.328v2.781c-1.719.246-2.367.246-3.754.246-6.535 0-7.766-1.805-7.766-11.277V144.19h-7.101v-2.609h7.101v-12.25h3.11v12.25h8.41Zm10.211 1.637-.082 2.125v2.531c1.058-2.777 2.039-4.328 3.59-5.882 2.695-2.614 6.285-4.079 10.37-4.079 5.15 0 9.24 2.036 11.763 5.715 1.632 2.45 2.289 4.98 2.289 9.39v25.079h-3.102v-24.59c-.086-4.984-.902-7.597-3.27-9.879-2.12-1.965-4.976-3.023-8.246-3.023-5.144 0-9.312 2.613-11.515 7.355-1.309 2.77-1.797 5.547-1.797 10.285v19.852h-3.106v-54.398h3.106Zm54.071 36.18c-10.782 0-17.891-8.008-17.891-20.414 0-12.5 7.27-21.074 17.89-21.074 10.446 0 17.149 8 17.149 20.667v.485h-31.692c0 11.191 5.473 17.726 14.543 17.726 7.184 0 12.168-4.328 13.637-11.925h3.027c-1.562 9.23-7.683 14.535-16.664 14.535m-.09-38.793c-4.976 0-9.468 2.531-11.921 6.7-1.711 2.937-2.118 4.57-2.614 9.226h28.586c-.492-9.961-5.797-15.926-14.05-15.926m43.453 1.14h-1.141c-4.41 0-8.25 1.883-10.781 5.31-2.532 3.429-3.266 6.452-3.266 14.136v16.906h-3.11v-39.125h3.028v10.29c1.629-4.247 3.184-6.368 5.96-8.247 2.532-1.637 5.227-2.367 9.063-2.367h.247Zm30.058 8.661c-.574-6.778-4.25-9.801-11.926-9.801-6.699 0-10.78 2.863-10.78 7.597 0 4.579 2.046 5.88 12.417 8.247 5.387 1.23 7.754 2.039 10.043 3.27 2.855 1.718 4.574 4.648 4.574 8.085 0 6.86-6.289 11.434-15.437 11.434-10.207 0-15.844-4.985-16.086-14.211h3.101c.164 3.593.57 5.062 1.88 6.945 2.124 2.938 6.124 4.652 11.023 4.652 7.437 0 12.332-3.43 12.332-8.652 0-4.578-2.528-6.379-12.082-8.578-6.782-1.555-8.582-2.129-10.618-3.274-2.785-1.468-4.335-4.246-4.335-7.593 0-6.614 5.316-10.617 14.05-10.617 9.559 0 14.38 4.003 14.946 12.496Zm0 0"/></svg>