<svg xmlns="http://www.w3.org/2000/svg" width="217" height="24" fill="none" viewBox="0 0 217 24"><g fill="#fff" clip-path="url(#a)"><path d="M155.597.707c2.765-.031 5.386.5 7.786 1.929 1.864 1.11 3.19 2.634 3.674 4.78.259 1.15.165 2.32.012 3.474-.299 2.257-1.251 4.207-2.756 5.918-2.721 3.099-6.132 4.99-10.143 5.87-1.935.425-3.888.668-5.87.534-2.712-.184-5.246-.924-7.356-2.7-1.82-1.532-2.878-3.498-2.862-5.914a10 10 0 0 1 1.61-5.433c2.241-3.462 5.25-6.005 9.173-7.4C151.04.99 153.306.75 155.597.704zm-9.95 12.524c-.015 2.4 1.083 3.88 3.037 4.46 1.339.4 2.678.462 4.066.178 3.415-.693 6.058-2.912 6.838-6.442.5-2.26-.524-4.254-2.702-5.015a8.2 8.2 0 0 0-2.166-.415c-2.179-.137-4.157.487-5.902 1.785-1.947 1.448-3.043 3.38-3.171 5.446zm-70.143 9.507c.072-.369.113-.709.203-1.037q1.82-6.567 3.652-13.136c.599-2.15 1.207-4.3 1.81-6.45.171-.622.324-.778.974-.784 1.947-.016 3.894-.012 5.842-.003.459 0 .543.128.403.634-.484 1.729-.99 3.451-1.48 5.177-.143.509-.271 1.024-.412 1.532-.078.281.003.462.306.497.655.08 1.31.209 1.97.215 2.14.028 4.284.013 6.429.01 1.107 0 1.566-.366 1.85-1.442.496-1.885.99-3.774 1.489-5.656.215-.814.437-.976 1.282-.976h5.415c.478 0 .606.078.537.53a18 18 0 0 1-.484 2.144c-1.46 5.25-2.936 10.496-4.403 15.742-.194.696-.353 1.402-.553 2.097-.168.59-.449.95-1.217.93-1.882-.046-3.767-.015-5.649-.018-.477 0-.537-.05-.415-.515.553-2.085 1.124-4.163 1.68-6.245a8 8 0 0 0 .22-1.058c.063-.471-.02-.559-.486-.565-2.481-.022-4.96-.044-7.44-.056-.48 0-.958.031-1.439.043-.471.013-.727.269-.849.709-.54 1.954-1.086 3.907-1.629 5.858-.097.35-.172.705-.28 1.049-.179.555-.522.79-1.096.79l-5.92-.01c-.076 0-.154-.006-.307-.016zm113.443-.113c-.306.025-.58.072-.855.069q-2.746-.011-5.493-.031-.252.002-.505-.007c-.709-.034-.943-.2-1.171-.858-.596-1.707-1.17-3.42-1.785-5.121-.374-1.033-.836-1.317-1.938-1.33q-.078 0-.156.006c-1.383.085-1.442.11-1.835 1.427-.509 1.707-.986 3.423-1.47 5.14-.175.62-.319.749-.946.746q-2.687-.004-5.374-.022c-.868-.006-.911-.05-.677-.89.83-2.986 1.679-5.964 2.515-8.947.687-2.45 1.367-4.9 2.051-7.35l.958-3.43c.137-.5.38-.705.883-.702 3.583.022 7.169 0 10.748.09 1.708.044 3.433.206 5.022.927 1.361.618 2.49 1.533 2.712 3.112.25 1.782-.1 3.477-1.092 5.009-.933 1.442-2.235 2.465-3.73 3.27a8 8 0 0 0-.668.394c-.486.334-.565.54-.349 1.083.259.661.552 1.307.833 1.96l2.247 5.19c.025.056.038.118.081.259zm-9.825-11.56v-.047c.684-.046 1.38-.043 2.054-.156 1.273-.212 2.372-.717 2.99-1.963.73-1.479.162-2.768-1.442-3.149-1.252-.296-2.528-.234-3.798-.165-.503.028-.681.18-.821.67l-1.111 3.911c-.178.625.022.89.69.902.48.007.961 0 1.438 0zM33.379 23.006c-.478-.181-.986-.375-1.495-.565-1.985-.733-3.483-1.972-4.192-4.02-.421-1.217-.343-2.462-.025-3.67A939 939 0 0 1 31.044 2.39c.362-1.292.36-1.052 1.439-1.058a497 497 0 0 1 5.18 0c.775 0 .83.06.628.8-.833 3.036-1.691 6.066-2.512 9.109-.319 1.183-.63 2.375-.83 3.58-.21 1.273.405 2.219 1.607 2.743 2.99 1.305 6.41-.178 7.425-3.317.833-2.578 1.52-5.203 2.262-7.81.4-1.4.774-2.811 1.17-4.215.213-.762.397-.89 1.174-.89h5.374c.103 0 .21-.003.312 0 .525.028.615.131.475.643-.534 1.941-1.08 3.876-1.626 5.814-.606 2.15-1.236 4.291-1.81 6.451-.603 2.266-1.914 4.03-3.677 5.524-2.16 1.832-4.638 2.89-7.434 3.268-2.016.271-4.03.378-6.039-.038-.087-.018-.178-.062-.262-.056-.166.01-.328.044-.521.075zm157.74-.253c.09-.49.134-.927.25-1.345 1.307-4.716 2.627-9.425 3.941-14.138.443-1.591.877-3.186 1.324-4.775.071-.259.168-.518.305-.749.225-.384.615-.424 1.021-.424h16.516c.559 0 1.117.01 1.676.01.346 0 .462.133.359.483-.353 1.214-.69 2.434-1.024 3.654-.115.416-.406.587-.805.59-.74.003-1.479-.015-2.219-.015-2.843 0-5.683.018-8.526.006-.796 0-1.258.34-1.442 1.108-.128.54-.319 1.064-.447 1.604-.137.577.11.802.678.671.093-.022.199.01.296.022.19.025.381.084.571.084 2.531.016 5.065.019 7.597.031.889.003.933.05.702.893q-.407 1.495-.846 2.98c-.172.578-.25.618-.855.618l-8.411-.003c-.955 0-1.233.21-1.504 1.124q-.297 1.003-.587 2.007c-.112.396-.019.577.384.692.184.053.384.063.577.063 3.402.006 6.804.006 10.206.015.493 0 .983.032 1.476.057.309.015.399.193.324.477-.324 1.236-.636 2.475-.973 3.708-.116.418-.394.565-.905.565-1.895 0-3.792-.007-5.687-.01h-13.972zM139.705 4.958c-1.801 1.173-3.508 2.278-5.206 3.398-.287.19-.477.147-.689-.106-1.405-1.67-3.237-2.325-5.384-2.278-1.688.034-3.358.203-4.878.955-2.678 1.32-4.166 3.52-4.413 6.482-.156 1.863 1.167 3.54 2.937 4.085 3.177.983 6.089.356 8.876-1.264.468-.271.945-.533 1.435-.774.113-.056.331-.059.412.013 1.161 1.052 2.304 2.122 3.452 3.19.016.015.016.046.044.143-.546.409-1.089.87-1.682 1.255-2.684 1.732-5.624 2.755-8.811 3.005-1.651.128-3.32.215-4.975.137-2.637-.124-4.974-1.126-6.916-2.92-1.938-1.792-2.562-4.055-2.25-6.633.369-3.036 1.82-5.474 4.048-7.515 1.411-1.289 2.878-2.49 4.557-3.424 1.888-1.048 3.916-1.588 6.057-1.828 2.859-.322 5.668-.144 8.449.596 1.707.452 3.105 1.401 4.325 2.634.238.24.403.552.615.849zM16.897.72c3.43-.022 5.992.402 8.37 1.644.986.515 1.832 1.22 2.566 2.054.327.371.284.527-.135.799l-4.453 2.92c-.11.073-.228.126-.334.2-.275.188-.484.125-.702-.121-.746-.827-1.583-1.533-2.675-1.87-.131-.04-.278-.03-.412-.065-.137-.034-.272-.094-.406-.14-.14-.05-.28-.141-.424-.15-1.83-.116-3.636.053-5.378.63-2.808.933-4.603 2.874-5.258 5.73-.394 1.717.053 3.293 1.498 4.457.203.162.474.24.708.368.26.14.496.334.768.428 1.09.37 2.219.387 3.349.305 2.216-.162 4.263-.83 6.107-2.081.032-.022.066-.04.1-.063.765-.434.837-.412 1.46.184.843.806 1.702 1.595 2.554 2.394.409.384.374.615-.075.946a19.7 19.7 0 0 1-5.234 2.768 19.7 19.7 0 0 1-5.63 1.083c-1.127.05-2.257.19-3.38.14-2.746-.121-5.234-1.008-7.356-2.783C.677 18.952-.078 16.945.006 14.554.131 10.928 1.882 8.172 4.482 5.8c2.128-1.94 4.506-3.43 7.275-4.266 1.925-.584 3.9-.827 5.14-.815M68.192.72c2.516.071 4.987.418 7.344 1.338.605.237 1.157.624 1.71.986.35.228.356.5.025.759-1.202.942-2.419 1.87-3.636 2.793-.38.287-.793.293-1.202.047-1.354-.815-2.821-1.27-4.388-1.47-1.432-.181-2.702.112-3.782 1.095-.49.444-.534 1.124-.106 1.636.38.455.886.708 1.438.88 1.433.443 2.875.864 4.304 1.32 1.177.375 2.307.846 3.261 1.67 1.514 1.301 1.992 3.068 1.32 4.968-.602 1.707-1.788 2.956-3.21 3.995-1.465 1.07-3.137 1.717-4.92 2.01-1.482.24-2.98.484-4.475.509-2.665.046-5.302-.247-7.82-1.24-.943-.37-1.758-.93-2.557-1.532-.318-.237-.1-.406.072-.55.509-.42 1.033-.823 1.551-1.232q1.316-1.033 2.628-2.066c.53-.418.752-.427 1.332-.094.84.484 1.642 1.062 2.538 1.408 1.726.665 3.52.705 5.302.15.331-.103.656-.26.943-.447.945-.624.949-1.76-.044-2.293a15 15 0 0 0-2.537-1.058c-1.67-.53-3.32-1.093-4.847-1.97-1.183-.677-2.1-1.576-2.381-2.955-.2-.98.087-1.9.552-2.76 1.517-2.792 3.826-4.577 6.926-5.32 1.529-.369 3.08-.6 4.662-.578z"/></g><defs><clipPath id="a"><path fill="#fff" d="M0 .707h216.548v22.586H0z"/></clipPath></defs></svg>