<svg xmlns="http://www.w3.org/2000/svg" width="841" height="162"><defs><clipPath id="a"><path d="M37.583 935.386H244.15v32.598H37.583z"/></clipPath></defs><path d="M0 162h840V2H0z" style="fill:#c51522;fill-opacity:1;fill-rule:nonzero;stroke:none"/><g clip-path="url(#a)" style="fill:#fff;fill-opacity:1" transform="matrix(3.75 0 0 -3.75 -108.181 3651.085)"><g style="fill:#fff;fill-opacity:1"><path d="M0 0c-1.116-5.251-2.723-8.148-7.096-8.148h-3.018l3.48 16.385h2.977C.67 8.237 1.156 5.431 0 0m13.827 15.515L12.58 9.647c-1.608 4.546-6.102 5.87-12.031 5.87h-17.724l-6.7-31.516h17.227c9.011 0 16.654 3.743 19.192 15.682.542 2.551.743 4.709.655 6.538H22.5l-4.724-22.229h12.089l4.726 22.229h10.646l1.977 9.294z" style="fill:#fff;fill-opacity:1;fill-rule:nonzero;stroke:none" transform="translate(61.457 951.935)"/></g><g style="fill:#fff;fill-opacity:1"><path d="M0 0c-1.49.903-3.341 1.535-5.734 1.535-2.98 0-6.231-1.174-6.231-4.921 0-5.283 10.746-5.328 10.746-13.59 0-4.741-3.296-10.114-10.881-10.114-3.658 0-6.276.813-8.805 1.806l1.445 4.154c1.851-1.174 4.425-1.987 6.637-1.987 4.786 0 6.818 2.98 6.818 5.599 0 6.411-10.746 5.282-10.746 14.041 0 5.735 5.238 8.985 10.43 8.985 2.618 0 5.192-.496 7.585-1.49z" style="fill:#fff;fill-opacity:1;fill-rule:nonzero;stroke:none" transform="translate(140.704 962.476)"/></g><g style="fill:#fff;fill-opacity:1"><path d="M0 0h4.514L6.23-26.955h.091L18.872 0h5.96l.813-27h.09L39.371 0h4.831L27.721-31.515h-5.869l-.677 27.271h-.09L8.533-31.515h-5.96z" style="fill:#fff;fill-opacity:1;fill-rule:nonzero;stroke:none" transform="translate(146.26 967.442)"/></g><g style="fill:#fff;fill-opacity:1"><path d="M0 0h4.56l-6.772-31.515h-4.561z" style="fill:#fff;fill-opacity:1;fill-rule:nonzero;stroke:none" transform="translate(194.753 967.442)"/></g><g style="fill:#fff;fill-opacity:1"><path d="M0 0c-1.49.903-3.341 1.535-5.734 1.535-2.98 0-6.231-1.174-6.231-4.921 0-5.283 10.746-5.328 10.746-13.59 0-4.741-3.296-10.114-10.881-10.114-3.658 0-6.276.813-8.804 1.806l1.445 4.154c1.851-1.174 4.424-1.987 6.636-1.987 4.787 0 6.818 2.98 6.818 5.599 0 6.411-10.745 5.282-10.745 14.041 0 5.735 5.237 8.985 10.429 8.985 2.619 0 5.192-.496 7.585-1.49z" style="fill:#fff;fill-opacity:1;fill-rule:nonzero;stroke:none" transform="translate(220.4 962.476)"/></g><g style="fill:#fff;fill-opacity:1"><path d="M0 0c-1.49.903-3.341 1.535-5.734 1.535-2.98 0-6.231-1.174-6.231-4.921 0-5.283 10.746-5.328 10.746-13.59 0-4.741-3.296-10.114-10.881-10.114-3.658 0-6.276.813-8.804 1.806l1.445 4.154c1.851-1.174 4.424-1.987 6.636-1.987 4.787 0 6.818 2.98 6.818 5.599 0 6.411-10.745 5.282-10.745 14.041 0 5.735 5.237 8.985 10.429 8.985 2.619 0 5.192-.496 7.585-1.49z" style="fill:#fff;fill-opacity:1;fill-rule:nonzero;stroke:none" transform="translate(242.885 962.476)"/></g></g></svg>