<svg xmlns="http://www.w3.org/2000/svg" width="112" height="104" fill="none" viewBox="0 0 112 104"><path fill="#50ad47" d="M0 84.187C.04 95.484 8.659 104 20.042 104c8.344.078 15.274-4.381 18.562-11.856l1.009-2.314h-5.66l-.445.95c-2.41 5.134-7.414 8.189-13.387 8.189-5.777.039-13.794-3.978-14.75-12.974h34.595s.236-1.352.157-2.704c-.484-11.258-9.064-18.98-20.002-18.98C8.659 64.336.039 72.851 0 84.187m20.12-14.846h.08c6.732-.273 13.19 5.135 14.435 11.661H5.528c1.284-6.76 7.257-11.66 14.593-11.66m49.227-4.732S58.843 89.152 56.393 94.885C53.956 89.153 43.49 64.61 43.49 64.61h-5.253l16.558 38.558h3.21L74.6 64.609zm2.489 19.252c0 11.141 8.816 19.89 20.082 19.89S112 95.003 112 83.862c0-11.18-8.816-19.89-20.081-19.89-11.266 0-20.082 8.75-20.082 19.89m4.768 0c0-8.71 6.576-15.314 15.314-15.314s15.313 6.565 15.313 15.314c0 8.71-6.576 15.275-15.313 15.275-8.738.052-15.314-6.552-15.314-15.275m-12.182-68.47 5.764-5.408h-8.895L56.314 0 51.35 9.984h-8.855l5.763 5.408zm44.132 30.368H3.485v4.38h105.07zM50.944 20.527c-.04 8.476-6.288 14.885-13.794 15.158H3.72v4.654l33.43-.04c10.06-.311 18.523-8.865 18.601-19.772zM77.05 35.685c-8.383-.312-14.592-6.721-14.67-15.158h-4.77c.04 10.907 8.541 19.46 19.44 19.773l31.111.039v-4.654z"/></svg>