<svg xmlns="http://www.w3.org/2000/svg" viewBox="448.9 96.2 253.4 428.3"><path fill="#fff" d="M490.555 414.773h-27.45l-3.918 18.297h10.364c2.031 0 3.43.504 4.281 1.54 1.344 1.636.977 4.117.363 7.187l-15.3 71.828h24.007l18.262-85.434c.887-4.449.395-7.855-1.457-10.117-1.797-2.191-4.875-3.3-9.152-3.3m78.207 37.249-5.176 24.024c-3.238 15.437-8.324 20.148-21.758 20.148-10.426 0-14.875-3.504-14.875-11.71 0-2.301.34-4.856 1.164-8.82l5.184-24.032c3.02-14.34 8.715-19.426 21.761-19.426 10.563 0 14.872 3.227 14.872 11.133 0 2.23-.383 5.07-1.172 8.683m-10.969-38.113c-31.781 0-41.39 4.692-48.438 37.68l-5.324 24.742c-1.148 5.316-1.703 9.816-1.703 13.758 0 17.558 10.266 24.398 36.621 24.398 31.746 0 41.387-4.797 48.73-38.547L593 451.203c1.035-4.527 1.559-8.957 1.559-13.183 0-17.348-10.309-24.11-36.766-24.11m107.461 38.113-5.18 24.024c-3.238 15.437-8.324 20.148-21.758 20.148-10.425 0-14.875-3.504-14.875-11.71 0-2.27.336-4.825 1.164-8.82l5.184-24.032c3.02-14.34 8.715-19.426 21.758-19.426 10.566 0 14.879 3.227 14.879 11.133 0 2.23-.383 5.07-1.172 8.683M654.28 413.91c-31.781 0-41.39 4.692-48.437 37.68l-5.324 24.742c-1.145 5.3-1.704 9.8-1.704 13.758 0 17.558 10.27 24.398 36.621 24.398 31.747 0 41.383-4.797 48.731-38.547l5.32-24.738c1.04-4.55 1.563-8.984 1.563-13.183 0-17.348-10.309-24.11-36.77-24.11m-136.444-30.133c0 1.286-.184 2.743-.57 4.45-1.551 7.32-4.09 9.671-10.45 9.671-4.976 0-6.918-1.476-6.918-5.261 0-1.27.188-2.742.575-4.496 1.57-7.407 4-9.668 10.402-9.668 5.012 0 6.96 1.488 6.96 5.304m-24.972 3.575c-.504 2.406-.605 4.09-.605 6.027 0 7.273 3.976 10.238 13.73 10.238 12.035 0 16.211-2.012 18.883-14.601.508-2.399.61-4.086.61-6.024 0-7.273-3.977-10.238-13.731-10.238-12.031 0-16.203 2.012-18.887 14.598m57.215 5.921c5.14 0 7.98-3.07 8.93-9.656.12-.949.215-2.25.215-3.027 0-5.11-2.184-7.488-6.875-7.488h-15.453c-3.176 0-4.75 1.32-5.442 4.562l-5.43 25.504-.023.098h7.46l4.724-22.235c.375-1.629 1.078-2.207 2.683-2.207h7.29c2.433 0 3.425.738 3.425 2.551 0 .477-.07 1.055-.223 1.867-.636 2.977-1.617 4.703-4.73 4.703h-2.574c-2.805 0-4.508.422-4.918 2.59l-.067.36c-.058.293-.105.523-.105.695 0 1.234 1.062 2.726 1.84 3.816l5.547 7.828.027.032h8.71l-7.448-9.532.093-.46Zm54.34-17.179c0-2.153-1.961-3.34-5.523-3.34-3.446 0-5.848 1.398-7.56 4.398l-9.995 17.633c-.403.746-.77 1.367-1.215 1.367-.523 0-.71-.82-.805-1.433l-2.62-17.637c-.45-2.996-2.177-4.328-5.614-4.328-2.594 0-5.86.789-6.66 4.558l-5.516 25.852-.023.106h7.457l4.246-21.016c.14-.711.45-1.117.847-1.117.426 0 .528.61.63 1.195l2.53 17.57c.344 2.301.723 3.715 4.13 3.715 3.351 0 4.414-1.43 5.77-3.789l9.995-17.547c.473-.832.758-1.144 1.04-1.144.23 0 .503.187.503.718 0 .133 0 .286-.05.485l-4.68 20.824-.024.106h7.457l5.551-26.036a5.2 5.2 0 0 0 .129-1.14m12.07-2.891.024-.101h-7.457l-4.028 18.75c-.203 1.015-.3 1.918-.3 2.75 0 5.816 4.41 9.015 12.421 9.015 8.7 0 13.82-1.887 15.961-11.851l3.985-18.563.023-.101h-7.46l-3.938 18.355c-.922 4.395-3.422 6.441-7.871 6.441-3.715 0-5.524-1.421-5.524-4.343 0-.645.094-1.399.266-2.18Zm27.098 22.926c0-.211.035-.477.074-.766l4.703-22.16.02-.101h-7.457l-5.465 25.734a6.4 6.4 0 0 0-.125 1.223c0 2.039 1.293 3.21 3.555 3.21h16.246l3.562-5.718h-13.215c-1.14 0-1.898-.242-1.898-1.422m31.898-8.496 5.36-9.012 1.676 9.883c.5 2.695-.961 4.398-1.997 4.84-1.343.57-3.343.535-4.46-.078a2.77 2.77 0 0 1-1.364-1.72c-.312-1.112-.031-2.503.785-3.913m-9.093 15.62 3.812-6.476c.867 1.317 2.512 2.227 4.77 2.637 1.746.32 3.265.234 3.28.23 2.477-.21 4.087-.69 5.888-1.753l1.09 5.363h7.109l-5.586-27.09c-.586-2.851-2.363-3.426-5.047-3.426-3.7 0-5.125 1.176-6.602 3.492l-16.894 27.024ZM475.836 391.45a1.14 1.14 0 0 1 1.11-.903h5.945a4.57 4.57 0 0 0 3.898-2.156l2.477-3.946h-17.614a2.26 2.26 0 0 0-2.203 1.785l-3.562 16.938-.02.098h7.457Zm17.954-14.22 2.589-4.128h-19.645c-3.171 0-4.746 1.32-5.441 4.562l-.324 1.723h18.922a4.57 4.57 0 0 0 3.898-2.157m20.024-31.855h123.539a19.86 19.86 0 0 0 16.73-9.098 19.86 19.86 0 0 0 1.457-18.988l-30.191-67.363a9.98 9.98 0 0 1 .777-9.617l14.297-21.688a27.63 27.63 0 0 0 4.387-18.172l-3.047-27.812-42.043 63.789a13.58 13.58 0 0 0-1.063 13.086l29.426 65.644a4.22 4.22 0 0 1-.316 4.078 4.2 4.2 0 0 1-3.59 1.954H529.66a4.22 4.22 0 0 1-3.77-2.25 4.22 4.22 0 0 1 .196-4.383L633.14 152.137a27.63 27.63 0 0 0 4.386-18.172l-3.047-27.809-137.308 208.317c-4.102 6.222-4.442 13.859-.906 20.422 3.535 6.562 10.093 10.48 17.546 10.48"/></svg>