<?xml version="1.0" encoding="UTF-8"?>
<svg xmlns="http://www.w3.org/2000/svg" xmlns:xlink="http://www.w3.org/1999/xlink" viewBox="448.9 96.2 253.4 428.3">
<path fill-rule="nonzero" fill="#ffffff" fill-opacity="1" d="M 490.554688 414.773438 L 463.105469 414.773438 L 459.1875 433.070312 L 469.550781 433.070312 C 471.582031 433.070312 472.980469 433.574219 473.832031 434.609375 C 475.175781 436.246094 474.808594 438.726562 474.195312 441.796875 L 458.894531 513.625 L 482.902344 513.625 L 501.164062 428.191406 C 502.050781 423.742188 501.558594 420.335938 499.707031 418.074219 C 497.910156 415.882812 494.832031 414.773438 490.554688 414.773438 "/>
<path fill-rule="nonzero" fill="#ffffff" fill-opacity="1" d="M 568.761719 452.023438 L 563.585938 476.046875 C 560.347656 491.484375 555.261719 496.195312 541.828125 496.195312 C 531.402344 496.195312 526.953125 492.691406 526.953125 484.484375 C 526.953125 482.183594 527.292969 479.628906 528.117188 475.664062 L 533.300781 451.632812 C 536.320312 437.292969 542.015625 432.207031 555.0625 432.207031 C 565.625 432.207031 569.933594 435.433594 569.933594 443.339844 C 569.933594 445.570312 569.550781 448.410156 568.761719 452.023438 M 557.792969 413.910156 C 526.011719 413.910156 516.402344 418.601562 509.355469 451.589844 L 504.03125 476.332031 C 502.882812 481.648438 502.328125 486.148438 502.328125 490.089844 C 502.328125 507.648438 512.59375 514.488281 538.949219 514.488281 C 570.695312 514.488281 580.335938 509.691406 587.679688 475.941406 L 593 451.203125 C 594.035156 446.675781 594.558594 442.246094 594.558594 438.019531 C 594.558594 420.671875 584.25 413.910156 557.792969 413.910156 "/>
<path fill-rule="nonzero" fill="#ffffff" fill-opacity="1" d="M 665.253906 452.023438 L 660.074219 476.046875 C 656.835938 491.484375 651.75 496.195312 638.316406 496.195312 C 627.890625 496.195312 623.441406 492.691406 623.441406 484.484375 C 623.441406 482.214844 623.777344 479.660156 624.605469 475.664062 L 629.789062 451.632812 C 632.808594 437.292969 638.503906 432.207031 651.546875 432.207031 C 662.113281 432.207031 666.425781 435.433594 666.425781 443.339844 C 666.425781 445.570312 666.042969 448.410156 665.253906 452.023438 M 654.28125 413.910156 C 622.5 413.910156 612.890625 418.601562 605.84375 451.589844 L 600.519531 476.332031 C 599.375 481.632812 598.816406 486.132812 598.816406 490.089844 C 598.816406 507.648438 609.085938 514.488281 635.4375 514.488281 C 667.183594 514.488281 676.820312 509.691406 684.167969 475.941406 L 689.488281 451.203125 C 690.527344 446.652344 691.050781 442.21875 691.050781 438.019531 C 691.050781 420.671875 680.742188 413.910156 654.28125 413.910156 "/>
<path fill-rule="nonzero" fill="#ffffff" fill-opacity="1" d="M 517.835938 383.777344 C 517.835938 385.0625 517.652344 386.519531 517.265625 388.226562 C 515.714844 395.546875 513.175781 397.898438 506.816406 397.898438 C 501.839844 397.898438 499.898438 396.421875 499.898438 392.636719 C 499.898438 391.367188 500.085938 389.894531 500.472656 388.140625 C 502.042969 380.734375 504.472656 378.472656 510.875 378.472656 C 515.886719 378.472656 517.835938 379.960938 517.835938 383.777344 M 492.863281 387.351562 C 492.359375 389.757812 492.257812 391.441406 492.257812 393.378906 C 492.257812 400.652344 496.234375 403.617188 505.988281 403.617188 C 518.023438 403.617188 522.199219 401.605469 524.871094 389.015625 C 525.378906 386.617188 525.480469 384.929688 525.480469 382.992188 C 525.480469 375.71875 521.503906 372.753906 511.75 372.753906 C 499.71875 372.753906 495.546875 374.765625 492.863281 387.351562 "/>
<path fill-rule="nonzero" fill="#ffffff" fill-opacity="1" d="M 550.078125 393.273438 C 555.21875 393.273438 558.058594 390.203125 559.007812 383.617188 C 559.128906 382.667969 559.222656 381.367188 559.222656 380.589844 C 559.222656 375.480469 557.039062 373.101562 552.347656 373.101562 L 536.894531 373.101562 C 533.71875 373.101562 532.144531 374.421875 531.453125 377.664062 L 526.023438 403.167969 L 526 403.265625 L 533.460938 403.265625 L 538.183594 381.03125 C 538.558594 379.402344 539.261719 378.824219 540.867188 378.824219 L 548.15625 378.824219 C 550.589844 378.824219 551.582031 379.5625 551.582031 381.375 C 551.582031 381.851562 551.511719 382.429688 551.359375 383.242188 C 550.722656 386.21875 549.742188 387.945312 546.628906 387.945312 L 544.054688 387.945312 C 541.25 387.945312 539.546875 388.367188 539.136719 390.535156 L 539.070312 390.894531 C 539.011719 391.1875 538.964844 391.417969 538.964844 391.589844 C 538.964844 392.824219 540.027344 394.316406 540.804688 395.40625 L 546.351562 403.234375 L 546.378906 403.265625 L 555.089844 403.265625 L 547.640625 393.734375 L 547.734375 393.273438 Z M 550.078125 393.273438 "/>
<path fill-rule="nonzero" fill="#ffffff" fill-opacity="1" d="M 604.417969 376.09375 C 604.417969 373.941406 602.457031 372.753906 598.894531 372.753906 C 595.449219 372.753906 593.046875 374.152344 591.335938 377.152344 L 581.339844 394.785156 C 580.9375 395.53125 580.570312 396.152344 580.125 396.152344 C 579.601562 396.152344 579.414062 395.332031 579.320312 394.71875 L 576.699219 377.082031 C 576.25 374.085938 574.523438 372.753906 571.085938 372.753906 C 568.492188 372.753906 565.226562 373.542969 564.425781 377.3125 L 558.910156 403.164062 L 558.886719 403.269531 L 566.34375 403.269531 L 570.589844 382.253906 C 570.730469 381.542969 571.039062 381.136719 571.4375 381.136719 C 571.863281 381.136719 571.964844 381.746094 572.066406 382.332031 L 574.597656 399.902344 C 574.941406 402.203125 575.320312 403.617188 578.726562 403.617188 C 582.078125 403.617188 583.140625 402.1875 584.496094 399.828125 L 594.492188 382.28125 C 594.964844 381.449219 595.25 381.136719 595.53125 381.136719 C 595.761719 381.136719 596.035156 381.324219 596.035156 381.855469 C 596.035156 381.988281 596.035156 382.140625 595.984375 382.339844 L 591.304688 403.164062 L 591.28125 403.269531 L 598.738281 403.269531 L 604.289062 377.234375 C 604.375 376.855469 604.417969 376.472656 604.417969 376.09375 "/>
<path fill-rule="nonzero" fill="#ffffff" fill-opacity="1" d="M 616.488281 373.203125 L 616.511719 373.101562 L 609.054688 373.101562 L 605.027344 391.851562 C 604.824219 392.867188 604.726562 393.769531 604.726562 394.601562 C 604.726562 400.417969 609.136719 403.617188 617.148438 403.617188 C 625.847656 403.617188 630.96875 401.730469 633.109375 391.765625 L 637.09375 373.203125 L 637.117188 373.101562 L 629.65625 373.101562 L 625.71875 391.457031 C 624.796875 395.851562 622.296875 397.898438 617.847656 397.898438 C 614.132812 397.898438 612.324219 396.476562 612.324219 393.554688 C 612.324219 392.910156 612.417969 392.15625 612.589844 391.375 Z M 616.488281 373.203125 "/>
<path fill-rule="nonzero" fill="#ffffff" fill-opacity="1" d="M 643.585938 396.128906 C 643.585938 395.917969 643.621094 395.652344 643.660156 395.363281 L 648.363281 373.203125 L 648.382812 373.101562 L 640.925781 373.101562 L 635.460938 398.835938 C 635.378906 399.246094 635.335938 399.671875 635.335938 400.058594 C 635.335938 402.097656 636.628906 403.269531 638.890625 403.269531 L 655.136719 403.269531 L 658.699219 397.550781 L 645.484375 397.550781 C 644.34375 397.550781 643.585938 397.308594 643.585938 396.128906 "/>
<path fill-rule="nonzero" fill="#ffffff" fill-opacity="1" d="M 675.484375 387.632812 L 680.84375 378.621094 L 682.519531 388.503906 C 683.019531 391.199219 681.558594 392.902344 680.523438 393.34375 C 679.179688 393.914062 677.179688 393.878906 676.0625 393.265625 C 675.378906 392.890625 674.90625 392.292969 674.699219 391.546875 C 674.386719 390.433594 674.667969 389.042969 675.484375 387.632812 M 666.390625 403.253906 L 670.203125 396.777344 C 671.070312 398.09375 672.714844 399.003906 674.972656 399.414062 C 676.71875 399.734375 678.238281 399.648438 678.253906 399.644531 C 680.730469 399.433594 682.339844 398.953125 684.140625 397.890625 L 685.230469 403.253906 L 692.339844 403.253906 L 686.753906 376.164062 C 686.167969 373.3125 684.390625 372.738281 681.707031 372.738281 C 678.007812 372.738281 676.582031 373.914062 675.105469 376.230469 L 658.210938 403.253906 Z M 666.390625 403.253906 "/>
<path fill-rule="nonzero" fill="#ffffff" fill-opacity="1" d="M 475.835938 391.449219 C 475.945312 390.925781 476.414062 390.546875 476.945312 390.546875 L 482.890625 390.546875 C 484.484375 390.546875 485.945312 389.742188 486.789062 388.390625 L 489.265625 384.445312 L 471.652344 384.445312 C 470.59375 384.445312 469.667969 385.195312 469.449219 386.230469 L 465.886719 403.167969 L 465.867188 403.265625 L 473.324219 403.265625 Z M 475.835938 391.449219 "/>
<path fill-rule="nonzero" fill="#ffffff" fill-opacity="1" d="M 493.789062 377.230469 L 496.378906 373.101562 L 476.734375 373.101562 C 473.5625 373.101562 471.988281 374.421875 471.292969 377.664062 L 470.96875 379.386719 L 489.890625 379.386719 C 491.484375 379.386719 492.945312 378.582031 493.789062 377.230469 "/>
<path fill-rule="nonzero" fill="#ffffff" fill-opacity="1" d="M 513.8125 345.375 L 637.351562 345.375 C 644.136719 345.375 650.390625 341.972656 654.082031 336.277344 C 657.769531 330.582031 658.316406 323.484375 655.539062 317.289062 L 625.347656 249.925781 C 623.9375 246.78125 624.230469 243.183594 626.125 240.308594 L 640.421875 218.621094 C 643.949219 213.273438 645.503906 206.820312 644.808594 200.449219 L 641.761719 172.636719 L 599.71875 236.425781 C 597.136719 240.339844 596.742188 245.230469 598.65625 249.511719 L 628.082031 315.15625 C 628.683594 316.507812 628.570312 317.992188 627.765625 319.234375 C 626.964844 320.476562 625.652344 321.1875 624.175781 321.1875 L 529.660156 321.1875 C 528.058594 321.1875 526.648438 320.34375 525.890625 318.9375 C 525.132812 317.527344 525.207031 315.886719 526.085938 314.554688 L 633.140625 152.136719 C 636.667969 146.789062 638.222656 140.335938 637.527344 133.964844 L 634.480469 106.15625 L 497.171875 314.472656 C 493.070312 320.695312 492.730469 328.332031 496.265625 334.894531 C 499.800781 341.457031 506.359375 345.375 513.8125 345.375 "/>
</svg>
