<svg xmlns="http://www.w3.org/2000/svg" width="1122.52" height="223.519" viewBox="0 0 841.89 167.639"><path fill="#fff" d="M144.184 94.133h-1.172L70.438 39.496H36.664v87.316h30.324v-54.76h1.45l71.542 54.762h34.254V39.496h-30.05ZM302.34 83.277q-.001 4.869-1.45 8.922-1.446 4.054-3.995 6.485t-5.86 2.433h-59.273q-3.31 0-5.86-2.433-2.548-2.431-3.996-6.485t-1.449-8.922v-.25q0-4.863 1.45-8.918c.964-2.699 2.296-4.863 3.995-6.484q2.55-2.433 5.86-2.434h59.273q3.31.001 5.86 2.434 2.548 2.433 3.996 6.484 1.447 4.055 1.449 8.918Zm20.78-38.417c-4.664-3.574-10.055-5.363-16.164-5.363H215.84q-9.169.002-16.164 5.363-6.995 5.367-10.856 15.157t-3.86 22.64v.25q0 12.972 3.86 22.95 3.861 9.978 10.856 15.468t16.164 5.489h91.117q9.167 0 16.164-5.489 6.995-5.49 10.856-15.469 3.857-9.977 3.859-22.949v-.25c0-8.566-1.29-16.113-3.86-22.64q-3.86-9.79-10.855-15.157m148.684 47.652h.277q6.13 0 10.578-3.434c2.961-2.285 5.23-5.426 6.79-9.418q2.343-5.984 2.343-13.469v-.5c0-4.992-.793-9.457-2.379-13.41-1.582-3.949-3.883-7.066-6.89-9.355q-4.513-3.429-10.72-3.43H348.017v87.316h36.53V60.825h61.618c1.012 0 1.899.274 2.652.813q1.142.814 1.727 2.37c.387 1.04.586 2.31.586 3.805q-.001 3.616-1.414 5.551t-3.55 1.934H390.68l53.695 51.516h51.14l-43.46-34.41Zm71.687 4.301q-2.725-1.934-4.238-5.426-1.517-3.493-1.516-8.11v-.246q0-6.984 3.305-11.226 3.31-4.243 8.687-4.243h89.532V39.497h-109.59c-5.836 0-10.98 1.79-15.442 5.363q-6.686 5.367-10.37 15.157-3.687 9.79-3.688 22.64v.25q0 12.972 3.687 22.95t10.371 15.468q6.69 5.49 15.442 5.489h109.867V98.746H549.73q-3.516 0-6.238-1.933m225.395-13.536q-.001 4.869-1.45 8.922c-.964 2.703-2.3 4.864-3.996 6.485-1.703 1.62-3.652 2.433-5.859 2.433h-59.277q-3.306 0-5.856-2.433-2.554-2.431-4-6.485t-1.445-8.922v-.246q-.001-4.868 1.445-8.922c.965-2.699 2.297-4.863 4-6.484q2.55-2.433 5.856-2.434h59.277c2.207 0 4.156.813 5.86 2.434 1.695 1.621 3.03 3.785 3.995 6.484q1.449 4.054 1.45 8.922Zm31.633-23.261c-2.57-6.528-6.192-11.578-10.856-15.157q-6.995-5.362-16.16-5.363h-91.117q-9.17.002-16.164 5.363-6.998 5.367-10.856 15.157-3.86 9.79-3.86 22.64v.25q0 12.972 3.86 22.95c2.57 6.656 6.192 11.808 10.856 15.468q6.994 5.49 16.164 5.489h91.117q9.164 0 16.16-5.489c4.664-3.66 8.285-8.812 10.856-15.469q3.86-9.977 3.859-22.949v-.25q.001-12.85-3.86-22.64"/></svg>