<?xml version="1.0" encoding="UTF-8"?>
<svg xmlns="http://www.w3.org/2000/svg" xmlns:xlink="http://www.w3.org/1999/xlink" width="841.89pt" height="167.639pt" viewBox="0 0 841.89 167.639">
<path fill-rule="nonzero" fill="rgb(100%, 100%, 100%)" fill-opacity="1" d="M 144.183594 94.132812 L 143.011719 94.132812 L 70.4375 39.496094 L 36.664062 39.496094 L 36.664062 126.8125 L 66.988281 126.8125 L 66.988281 72.050781 L 68.4375 72.050781 L 139.980469 126.8125 L 174.234375 126.8125 L 174.234375 39.496094 L 144.183594 39.496094 Z M 144.183594 94.132812 "/>
<path fill-rule="nonzero" fill="rgb(100%, 100%, 100%)" fill-opacity="1" d="M 302.339844 83.277344 C 302.339844 86.523438 301.855469 89.496094 300.890625 92.199219 C 299.925781 94.902344 298.59375 97.0625 296.894531 98.683594 C 295.195312 100.304688 293.242188 101.117188 291.035156 101.117188 L 231.761719 101.117188 C 229.554688 101.117188 227.601562 100.304688 225.902344 98.683594 C 224.203125 97.0625 222.871094 94.902344 221.90625 92.199219 C 220.941406 89.496094 220.457031 86.523438 220.457031 83.277344 L 220.457031 83.027344 C 220.457031 79.785156 220.941406 76.8125 221.90625 74.109375 C 222.871094 71.410156 224.203125 69.246094 225.902344 67.625 C 227.601562 66.003906 229.554688 65.191406 231.761719 65.191406 L 291.035156 65.191406 C 293.242188 65.191406 295.195312 66.003906 296.894531 67.625 C 298.59375 69.246094 299.925781 71.410156 300.890625 74.109375 C 301.855469 76.8125 302.339844 79.785156 302.339844 83.027344 Z M 323.121094 44.859375 C 318.457031 41.285156 313.066406 39.496094 306.957031 39.496094 L 215.839844 39.496094 C 209.726562 39.496094 204.339844 41.285156 199.675781 44.859375 C 195.011719 48.4375 191.394531 53.488281 188.820312 60.015625 C 186.246094 66.542969 184.960938 74.089844 184.960938 82.65625 L 184.960938 82.90625 C 184.960938 91.554688 186.246094 99.203125 188.820312 105.855469 C 191.394531 112.507812 195.011719 117.664062 199.675781 121.324219 C 204.339844 124.984375 209.726562 126.8125 215.839844 126.8125 L 306.957031 126.8125 C 313.066406 126.8125 318.457031 124.984375 323.121094 121.324219 C 327.785156 117.664062 331.402344 112.507812 333.976562 105.855469 C 336.546875 99.203125 337.835938 91.554688 337.835938 82.90625 L 337.835938 82.65625 C 337.835938 74.089844 336.546875 66.542969 333.976562 60.015625 C 331.402344 53.488281 327.785156 48.4375 323.121094 44.859375 "/>
<path fill-rule="nonzero" fill="rgb(100%, 100%, 100%)" fill-opacity="1" d="M 471.804688 92.511719 L 472.082031 92.511719 C 476.167969 92.511719 479.695312 91.367188 482.660156 89.078125 C 485.621094 86.792969 487.890625 83.652344 489.449219 79.660156 C 491.011719 75.671875 491.792969 71.179688 491.792969 66.191406 L 491.792969 65.691406 C 491.792969 60.699219 491 56.234375 489.414062 52.28125 C 487.832031 48.332031 485.53125 45.214844 482.523438 42.925781 C 479.515625 40.640625 475.941406 39.496094 471.804688 39.496094 L 348.015625 39.496094 L 348.015625 126.8125 L 384.546875 126.8125 L 384.546875 60.824219 L 446.164062 60.824219 C 447.175781 60.824219 448.0625 61.097656 448.816406 61.636719 C 449.578125 62.179688 450.152344 62.96875 450.542969 64.007812 C 450.929688 65.046875 451.128906 66.316406 451.128906 67.8125 C 451.128906 70.222656 450.65625 72.074219 449.714844 73.363281 C 448.773438 74.652344 447.589844 75.296875 446.164062 75.296875 L 390.679688 75.296875 L 444.375 126.8125 L 495.515625 126.8125 L 452.054688 92.402344 Z M 471.804688 92.511719 "/>
<path fill-rule="nonzero" fill="rgb(100%, 100%, 100%)" fill-opacity="1" d="M 543.492188 96.8125 C 541.675781 95.523438 540.261719 93.714844 539.253906 91.386719 C 538.242188 89.058594 537.738281 86.355469 537.738281 83.277344 L 537.738281 83.03125 C 537.738281 78.375 538.839844 74.632812 541.042969 71.804688 C 543.25 68.976562 546.144531 67.5625 549.730469 67.5625 L 639.261719 67.5625 L 639.261719 39.496094 L 529.671875 39.496094 C 523.835938 39.496094 518.691406 41.285156 514.230469 44.859375 C 509.773438 48.4375 506.316406 53.488281 503.859375 60.015625 C 501.402344 66.542969 500.171875 74.089844 500.171875 82.65625 L 500.171875 82.90625 C 500.171875 91.554688 501.402344 99.203125 503.859375 105.855469 C 506.316406 112.507812 509.773438 117.664062 514.230469 121.324219 C 518.691406 124.984375 523.835938 126.8125 529.671875 126.8125 L 639.539062 126.8125 L 639.539062 98.746094 L 549.730469 98.746094 C 547.386719 98.746094 545.304688 98.101562 543.492188 96.8125 "/>
<path fill-rule="nonzero" fill="rgb(100%, 100%, 100%)" fill-opacity="1" d="M 768.886719 83.277344 C 768.886719 86.523438 768.402344 89.496094 767.4375 92.199219 C 766.472656 94.902344 765.136719 97.0625 763.441406 98.683594 C 761.738281 100.304688 759.789062 101.117188 757.582031 101.117188 L 698.304688 101.117188 C 696.101562 101.117188 694.148438 100.304688 692.449219 98.683594 C 690.746094 97.0625 689.414062 94.902344 688.449219 92.199219 C 687.484375 89.496094 687.003906 86.523438 687.003906 83.277344 L 687.003906 83.03125 C 687.003906 79.785156 687.484375 76.8125 688.449219 74.109375 C 689.414062 71.410156 690.746094 69.246094 692.449219 67.625 C 694.148438 66.003906 696.101562 65.191406 698.304688 65.191406 L 757.582031 65.191406 C 759.789062 65.191406 761.738281 66.003906 763.441406 67.625 C 765.136719 69.246094 766.472656 71.410156 767.4375 74.109375 C 768.402344 76.8125 768.886719 79.785156 768.886719 83.03125 Z M 800.519531 60.015625 C 797.949219 53.488281 794.328125 48.4375 789.664062 44.859375 C 785 41.285156 779.613281 39.496094 773.503906 39.496094 L 682.386719 39.496094 C 676.273438 39.496094 670.886719 41.285156 666.222656 44.859375 C 661.558594 48.4375 657.9375 53.488281 655.367188 60.015625 C 652.792969 66.542969 651.507812 74.089844 651.507812 82.65625 L 651.507812 82.90625 C 651.507812 91.554688 652.792969 99.203125 655.367188 105.855469 C 657.9375 112.511719 661.558594 117.664062 666.222656 121.324219 C 670.886719 124.984375 676.273438 126.8125 682.386719 126.8125 L 773.503906 126.8125 C 779.613281 126.8125 785 124.984375 789.664062 121.324219 C 794.328125 117.664062 797.949219 112.511719 800.519531 105.855469 C 803.09375 99.203125 804.378906 91.554688 804.378906 82.90625 L 804.378906 82.65625 C 804.378906 74.089844 803.09375 66.542969 800.519531 60.015625 "/>
</svg>
