<?xml version="1.0" encoding="UTF-8"?>
<svg id="Layer_2" data-name="Layer 2" xmlns="http://www.w3.org/2000/svg" viewBox="0 0 769.37 87.5">
  <defs>
    <style>
      .cls-1 {
        fill: #231f20;
      }
    </style>
  </defs>
  <g id="Layer_1-2" data-name="Layer 1">
    <g>
      <polygon class="cls-1" points="107.75 54.75 106.58 54.75 33.85 0 0 0 0 87.5 30.39 87.5 30.39 32.63 31.84 32.63 103.54 87.5 137.87 87.5 137.87 0 107.75 0 107.75 54.75"/>
      <path class="cls-1" d="M287.07,5.38C282.4,1.79,277,0,270.88,0h-91.31C173.44,0,168.04,1.79,163.36,5.38c-4.67,3.58-8.3,8.65-10.88,15.19-2.58,6.54-3.87,14.11-3.87,22.69v.25c0,8.67,1.29,16.33,3.87,23,2.58,6.67,6.2,11.83,10.88,15.5,4.67,3.67,10.07,5.5,16.2,5.5h91.31c6.12,0,11.52-1.83,16.2-5.5,4.67-3.67,8.3-8.83,10.88-15.5,2.58-6.67,3.87-14.33,3.87-23v-.25c0-8.58-1.29-16.15-3.87-22.69-2.58-6.54-6.21-11.6-10.88-15.19ZM266.25,43.88c0,3.25-.48,6.23-1.45,8.94-.97,2.71-2.3,4.88-4.01,6.5-1.7,1.62-3.66,2.44-5.87,2.44h-59.4c-2.21,0-4.17-.81-5.87-2.44-1.7-1.62-3.04-3.79-4.01-6.5-.97-2.71-1.45-5.69-1.45-8.94v-.25c0-3.25.48-6.23,1.45-8.94.97-2.71,2.3-4.88,4.01-6.5,1.7-1.62,3.66-2.44,5.87-2.44h59.4c2.21,0,4.17.81,5.87,2.44,1.7,1.62,3.04,3.79,4.01,6.5.97,2.71,1.45,5.69,1.45,8.94v.25Z"/>
      <path class="cls-1" d="M436.08,53.13h.28c4.1,0,7.63-1.15,10.6-3.44,2.97-2.29,5.24-5.44,6.8-9.44,1.57-4,2.35-8.5,2.35-13.5v-.5c0-5-.8-9.48-2.38-13.44-1.59-3.96-3.89-7.08-6.91-9.38C443.8,1.15,440.23,0,436.08,0h-124.06v87.5h36.61V21.37h61.75c1.01,0,1.9.27,2.66.81.76.54,1.34,1.33,1.73,2.37.39,1.04.59,2.31.59,3.81,0,2.42-.47,4.27-1.42,5.56-.94,1.29-2.13,1.94-3.56,1.94h-55.6l53.81,51.63h51.25l-43.55-34.48,19.79.11Z"/>
      <path class="cls-1" d="M507.92,57.44c-1.82-1.29-3.24-3.1-4.25-5.44-1.01-2.33-1.52-5.04-1.52-8.12v-.25c0-4.67,1.1-8.42,3.31-11.25,2.21-2.83,5.11-4.25,8.7-4.25h89.73V0h-109.83c-5.85,0-11.01,1.79-15.47,5.38-4.47,3.58-7.93,8.65-10.4,15.19-2.46,6.54-3.7,14.11-3.7,22.69v.25c0,8.67,1.23,16.33,3.7,23,2.46,6.67,5.93,11.83,10.4,15.5,4.47,3.67,9.62,5.5,15.47,5.5h110.1s0-28.12,0-28.12h-90c-2.35,0-4.43-.65-6.25-1.94Z"/>
      <path class="cls-1" d="M765.5,20.56c-2.58-6.54-6.21-11.6-10.88-15.19C749.95,1.79,744.55,0,738.43,0h-91.31c-6.13,0-11.52,1.79-16.2,5.38-4.67,3.58-8.3,8.65-10.88,15.19-2.58,6.54-3.87,14.11-3.87,22.69v.25c0,8.67,1.29,16.33,3.87,23,2.58,6.67,6.2,11.83,10.88,15.5,4.67,3.67,10.07,5.5,16.2,5.5h91.31c6.12,0,11.52-1.83,16.2-5.5,4.67-3.67,8.3-8.83,10.88-15.5,2.58-6.67,3.87-14.33,3.87-23v-.25c0-8.58-1.29-16.15-3.87-22.69ZM733.8,43.88c0,3.25-.48,6.23-1.45,8.94-.97,2.71-2.3,4.88-4,6.5-1.7,1.62-3.66,2.44-5.87,2.44h-59.4c-2.21,0-4.17-.81-5.87-2.44-1.7-1.62-3.04-3.79-4.01-6.5-.97-2.71-1.45-5.69-1.45-8.94v-.25c0-3.25.48-6.23,1.45-8.94.97-2.71,2.3-4.88,4.01-6.5,1.7-1.62,3.66-2.44,5.87-2.44h59.4c2.21,0,4.17.81,5.87,2.44,1.7,1.62,3.04,3.79,4,6.5.97,2.71,1.45,5.69,1.45,8.94v.25Z"/>
    </g>
  </g>
</svg>