<svg xmlns="http://www.w3.org/2000/svg" viewBox="0 0 1045 76.5"><path fill="#d9d9d6" d="M123.7 64.9c14.6 0 21.3-5.1 24.1-9.7l21.4-42.8C172.9 5 169.1.1 157.3.1 143.5.1 52.1 0 38.3.1L0 76.4h53.2L59 64.9zM64.8 52.3c5-9.9 8.7-17.3 12.5-24.7s3.2-6.8 8.2-16.7h25.3c3.9-.1 5.3 1.1 4.2 3.3l-6.7 13.6-11 21.8c-1.5 2.5-6 2.7-7.3 2.7zM833.3.2l-38.8 76.3h53.6L886.9.1zm-581 76.4h53L298.5 60c1.6-.3 8.5-1.2 12.2-8l19.6-39.5C334 5.1 330.2.2 318.4.2h-118l-38.9 76.3h52.9l6.1-12.2h27.2zm-25.5-24.5L247.2 12h25.6c4 0 4.7 1.3 3.6 3.5l-16.8 33c-2 3.6-6.5 3.6-7.8 3.6zm238 14.2s26.5-53.6 26.6-53.7c3.7-7.4-.1-12.3-11.9-12.3L381.3.1c-17 0-24 4.8-27 10.8-2.2 4.3-26.4 53.8-26.4 53.8-4.1 7.8.1 11.6 8.4 11.6 16.2 0 87.2.3 103.5.2 13.5 0 21.4-4.1 25-10.2m-78.5-1.2c-4 0-5.4-1-4.3-3.2l9.3-18.7s10.1-21.1 13.8-28.4c1.1-2.2 3.6-3.3 7.6-3.3h20.6c4-.1 5.4 1 4.3 3.2 0 0-19.4 39.8-23.1 47.1-1.1 2.2-3.6 3.3-7.6 3.3zm521.5-54.9S873.2 76.5 875 76.5h52.7l30.8-61.8c1.1-2.2 3.3-3.2 6.8-3.2s22.7.1 23.4.2 2.4 1.4 1.6 2.9l-30.9 61.9h52.5c1.7-3.2 31.7-63.9 31.8-64.1 3.7-7.3-.1-12.3-11.9-12.3h-100c-16.5.1-22.7 7.5-24 10.1m-186 66.3h53l31.8-64.1c3.7-7.3-.1-12.3-11.9-12.3h-98.6c-6 0-21 1.3-25.7 10.7s-32.7 65.6-32.7 65.6h52.9l5.7-11.3h31.2zm-20.1-23.9 18.7-37.8c1.2-2.2 3.7-3.3 7.6-3.3h20.5c3.9-.1 5.3 1 4.1 3.3-4.7 9.4-18.7 37.8-18.7 37.8zM532.6 76.5c1.8-3.4 5.9-11.6 5.9-11.6h64.7c14.5 0 21.3-5.1 24.1-9.7l21.4-42.8c3.7-7.3-.1-12.3-11.9-12.3h-119l-38.3 76.4zm11.7-24.1c5-9.9 8.7-17.3 12.5-24.7S560 20.9 565 11h25.3c3.9-.1 5.3 1 4.2 3.2l-6.7 13.7-11 21.8c-1.5 2.5-6 2.7-7.3 2.7z"/></svg>