<svg xmlns="http://www.w3.org/2000/svg" viewBox="0 0 400 400">
  <!-- black blob -->
  <g transform="matrix(1.65,0,0,1.65,9.577,10.422)">
    <path fill="#000" d="M2.777,-115.396 C90.207,-115.396 115.089,-33.412 115.089,-0.75 C115.222,14.599 111.861,29.718 105.246,44.467 C102.328,50.974 99.419,57.494 97.465,64.403 C93.29,79.165 96.014,91.97 107.495,102.661 C110.085,105.072 114.635,108.135 114.635,110.555 C114.635,112.975 111.724,113.359 109.706,113.339 C68.904,112.94 28.007,115.396 -12.678,112.338 C-61.861,108.64 -115.223,65.601 -115.223,-2.729 C-115.223,-64.848 -63.957,-115.396 2.777,-115.396z" transform="translate(115.473,115.646)"/>
  </g>
  <!-- Y -->
  <g transform="matrix(1.65,0,0,1.65,88.277,86.729)">
    <path fill="rgb(246,246,246)" d="M7.017,-22.163 C7.017,-22.163 18.784,-22.163 18.784,-22.163 C18.784,-22.163 5.485,4.993 5.485,4.993 C5.485,4.993 5.485,22.163 5.485,22.163 C5.485,22.163 -5.016,22.163 -5.016,22.163 C-5.016,22.163 -5.016,4.993 -5.016,4.993 C-5.016,4.993 -18.784,-21.945 -18.784,-21.945 C-18.784,-21.945 -7.01,-21.945 -7.01,-21.945 C-7.01,-21.945 0.02,-6.438 0.02,-6.438 C0.02,-6.438 7.017,-22.163 7.017,-22.163z" transform="translate(19.035,22.413)"/>
  </g>
  <!-- O -->
  <g transform="matrix(1.65,0,0,1.65,149.418,85.902)">
    <path fill="rgb(248,248,248)" d="M-16.859,-6.375 C-16.338,-16.051 -10.089,-22.28 -0.794,-22.462 C9.152,-22.658 15.568,-17.005 16.49,-7.154 C16.987,-1.848 16.992,3.471 16.338,8.764 C15.293,17.221 8.746,22.658 -0.254,22.64 C-9.106,22.621 -15.811,16.979 -16.698,8.564 C-16.992,5.773 -16.975,-4.221 -16.859,-6.375z M-5.614,8.144 C-5.152,11.109 -3.258,12.823 -0.125,12.789 C2.979,12.755 4.834,11.142 5.285,8.08 C6.063,2.806 6.035,-2.481 5.322,-7.762 C4.91,-10.819 3.222,-12.52 0.065,-12.609 C-3.318,-12.705 -5.262,-10.968 -5.667,-7.714 C-5.994,-5.093 -6.02,5.54 -5.614,8.144z" transform="translate(17.242,22.908)"/>
  </g>
  <!-- U -->
  <g transform="matrix(1.65,0,0,1.65,210.974,86.977)">
    <path fill="rgb(248,248,248)" d="M-16.96,-22.418 C-16.96,-22.418 -5.986,-22.418 -5.986,-22.418 C-5.986,-13.076 -5.993,-3.958 -5.982,5.159 C-5.978,8.334 -5.371,11.23 -1.771,12.208 C2.634,13.404 5.791,10.793 5.88,5.659 C6.012,-2.002 5.919,-9.667 5.921,-17.329 C5.922,-18.957 5.921,-20.585 5.921,-22.42 C5.921,-22.42 16.898,-22.42 16.898,-22.42 C16.898,-16.208 16.9,-9.957 16.897,-3.706 C16.895,-0.208 17.011,3.297 16.854,6.788 C16.45,15.749 9.755,22.005 0.501,22.211 C-8.941,22.42 -15.852,16.726 -16.861,7.852 C-17.011,6.534 -16.955,5.19 -16.956,3.858 C-16.963,-4.773 -16.96,-13.404 -16.96,-22.418z" transform="translate(17.26,22.67)"/>
  </g>
  <!-- M -->
  <g transform="matrix(1.65,0,0,1.65,95.652,170.948)">
    <path fill="rgb(246,246,246)" d="M-20.568,21.982 C-20.568,21.982 -20.568,-21.847 -20.568,-21.847 C-20.568,-21.847 -9.859,-21.847 -9.859,-21.847 C-6.748,-15.829 -3.51,-9.564 0.066,-2.647 C3.616,-9.52 6.863,-15.806 10.053,-21.982 C10.053,-21.982 20.568,-21.982 20.568,-21.982 C20.568,-21.982 20.568,21.982 20.568,21.982 C20.568,21.982 10.062,21.982 10.062,21.982 C10.062,21.982 10.062,1.572 10.062,1.572 C10.062,1.572 3.747,11.82 3.747,11.82 C3.747,11.82 -3.38,11.82 -3.38,11.82 C-3.38,11.82 -7.143,5.684 -9.572,1.572 C-9.572,1.572 -9.572,21.982 -9.572,21.982 C-9.572,21.982 -20.568,21.982 -20.568,21.982z" transform="translate(20.817,22.232)"/>
  </g>
  <!-- O -->
  <g transform="matrix(1.65,0,0,1.65,170.896,171.004)">
    <path fill="rgb(248,248,248)" d="M-16.986,-5.887 C-16.509,-15.437 -10.48,-21.884 -1.677,-22.326 C8.654,-22.843 15.257,-17.612 16.506,-7.445 C17.193,-1.85 17.271,3.832 16.228,9.436 C14.688,17.708 8.674,22.66 0.147,22.751 C-8.475,22.843 -14.584,18.123 -16.495,10.018 C-17.271,6.725 -17.086,-3.898 -16.986,-5.887z M-6.166,-0.706 C-5.923,3.116 -6.315,5.955 -5.514,8.715 C-4.729,11.42 -3.041,12.933 -0.117,12.897 C2.765,12.861 4.612,11.514 5.168,8.661 C6.257,3.073 6.204,-2.535 5.232,-8.134 C4.735,-10.995 2.962,-12.436 0.088,-12.545 C-3.051,-12.665 -5.046,-11.077 -5.563,-8.099 C-6.041,-5.342 -6.034,-2.502 -6.166,-0.706z" transform="translate(17.521,23.093)"/>
  </g>
  <!-- V -->
  <g transform="matrix(1.65,0,0,1.65,225.984,171.005)">
    <path fill="rgb(246,246,246)" d="M4.035,22.176 C4.035,22.176 -4.058,22.176 -4.058,22.176 C-8.887,7.576 -13.754,-7.135 -18.728,-22.171 C-18.728,-22.171 -7.467,-22.171 -7.467,-22.171 C-5.16,-14.656 -2.797,-6.958 0.009,2.186 C2.715,-6.691 5.045,-14.338 7.433,-22.176 C7.433,-22.176 18.728,-22.176 18.728,-22.176 C13.79,-7.271 8.955,7.323 4.035,22.176z" transform="translate(18.978,22.427)"/>
  </g>
  <!-- E -->
  <g transform="matrix(1.65,0,0,1.65,290.107,171.214)">
    <path fill="rgb(248,248,248)" d="M14.988,-21.999 C14.988,-21.999 14.988,-12.663 14.988,-12.663 C14.988,-12.663 -3.803,-12.663 -3.803,-12.663 C-3.803,-12.663 -3.803,-5.179 -3.803,-5.179 C-3.803,-5.179 12.178,-5.179 12.178,-5.179 C12.178,-5.179 12.178,4.578 12.178,4.578 C12.178,4.578 -3.803,4.578 -3.803,4.578 C-3.803,4.578 -3.803,12.39 -3.803,12.39 C-3.803,12.39 14.976,12.39 14.976,12.39 C14.976,12.39 14.976,21.999 14.976,21.999 C14.976,21.999 -14.988,21.999 -14.988,21.999 C-14.988,21.999 -14.988,0.259 -14.988,0.259 C-14.988,0.259 -14.988,-21.999 -14.988,-21.999 C-14.988,-21.999 14.988,-21.999 14.988,-21.999z" transform="translate(15.237,22.249)"/>
  </g>
  <!-- M -->
  <g transform="matrix(1.65,0,0,1.65,95.984,254.565)">
    <path fill="rgb(246,246,246)" d="M20.473,-22.226 C20.473,-22.226 20.473,22.226 20.473,22.226 C20.473,22.226 9.777,22.226 9.777,22.226 C9.777,22.226 9.777,1.551 9.777,1.551 C9.777,1.551 3.577,11.788 3.577,11.788 C3.577,11.788 -3.62,11.788 -3.62,11.788 C-3.62,11.788 -9.708,1.551 -9.708,1.551 C-9.708,1.551 -9.708,22.226 -9.708,22.226 C-9.708,22.226 -20.473,22.226 -20.473,22.226 C-20.473,22.226 -20.473,-22.226 -20.473,-22.226 C-20.473,-22.226 -10.173,-22.226 -10.173,-22.226 C-10.173,-22.226 -3.615,-9.552 -0.04,-2.641 C3.436,-9.373 6.616,-15.882 9.891,-22.226 C9.891,-22.226 20.473,-22.226 20.473,-22.226z" transform="translate(20.722,22.476)"/>
  </g>
  <!-- E -->
  <g transform="matrix(1.65,0,0,1.65,174.006,255.199)">
    <path fill="rgb(246,246,246)" d="M14.582,-12.309 C14.582,-12.309 -4.119,-12.309 -4.119,-12.309 C-4.119,-12.309 -4.119,-5.201 -4.119,-5.201 C-4.119,-5.201 12.079,-5.201 12.079,-5.201 C12.079,-5.201 12.079,4.576 12.079,4.576 C12.079,4.576 -4.119,4.576 -4.119,4.576 C-4.119,4.576 -4.119,12.553 -4.119,12.553 C-4.119,12.553 14.909,12.553 14.909,12.553 C14.909,12.553 14.909,22.029 14.909,22.029 C14.909,22.029 -14.909,22.029 -14.909,22.029 C-14.909,22.029 -14.909,-22.029 -14.909,-22.029 C-14.909,-22.029 14.704,-22.029 14.704,-22.029 C14.704,-22.029 14.582,-12.309 14.582,-12.309z" transform="translate(15.159,22.279)"/>
  </g>
  <!-- green heart -->
  <g transform="matrix(1.65,0,0,1.65,236.711,299.343)">
    <path fill="rgb(160,198,55)" d="M0.003,-4.881 C2.606,-6.968 5.423,-8.781 8.028,-5.922 C10.674,-3.017 8.929,0.052 6.781,2.502 C4.83,4.727 2.517,6.634 0.141,8.891 C-2.191,6.784 -4.586,4.988 -6.512,2.782 C-8.593,0.397 -10.675,-2.59 -8.151,-5.65 C-5.478,-8.891 -2.519,-6.994 0.003,-4.881z" transform="translate(10.925,9.141)"/>
  </g>
</svg>
