<svg xmlns="http://www.w3.org/2000/svg" viewBox="0 0 400 400"><path d="M204.69 10.834c144.259 0 185.314 135.274 185.314 189.166.22 25.326-5.326 50.273-16.24 74.608-4.815 10.737-9.615 21.495-12.84 32.895-6.888 24.357-2.393 45.485 16.55 63.126 4.274 3.978 11.781 9.032 11.781 13.025s-4.803 4.626-8.133 4.593c-67.323-.658-134.803 3.394-201.933-1.651-81.152-6.102-169.2-77.116-169.2-189.86 0-102.497 84.59-185.901 194.7-185.901"/><path fill="#f6f6f6" d="M131.263 87.142h19.415l-21.943 44.807v28.33h-17.327v-28.33L88.691 87.5h19.427l11.6 25.587z"/><path fill="#f8f8f8" d="M150.05 113.181c.86-15.965 11.17-26.243 26.507-26.543 16.411-.324 26.998 9.004 28.519 25.258.82 8.755.828 17.531-.251 26.265-1.724 13.954-12.527 22.925-27.377 22.895-14.606-.031-25.669-9.34-27.132-23.225-.486-4.605-.457-21.095-.266-24.65m18.554 23.957c.762 4.892 3.888 7.72 9.057 7.664 5.122-.056 8.182-2.718 8.927-7.77 1.283-8.702 1.237-17.425.06-26.14-.68-5.043-3.464-7.85-8.673-7.997-5.582-.158-8.79 2.708-9.458 8.077-.54 4.325-.583 21.87.087 26.166m42.865-49.745h18.107c0 15.414-.011 30.459.007 45.502.006 5.239 1.008 10.017 6.948 11.63 7.268 1.974 12.477-2.334 12.624-10.805.218-12.64.064-25.288.068-37.93v-8.4h18.112c0 10.25.003 20.563-.002 30.878-.003 5.771.188 11.555-.07 17.315-.667 14.785-11.714 25.108-26.983 25.448-15.58.345-26.983-9.05-28.648-23.693-.247-2.174-.155-4.392-.156-6.59-.012-14.24-.007-28.482-.007-43.355"/><path fill="#f6f6f6" d="M96.063 243.901v-72.318h17.67l16.376 31.68 16.478-31.902h17.35v72.54h-17.335v-33.676l-10.42 16.909h-11.759s-6.209-10.125-10.217-16.91v33.677z"/><path fill="#f8f8f8" d="M171.779 199.394c.787-15.758 10.735-26.395 25.26-27.124 17.046-.854 27.94 7.778 30.002 24.553 1.133 9.232 1.262 18.607-.46 27.854-2.54 13.649-12.463 21.82-26.533 21.97-14.226.151-24.306-7.637-27.46-21.01-1.28-5.433-.974-22.961-.81-26.243m17.853 8.549c.4 6.306-.246 10.99 1.076 15.544 1.295 4.463 4.08 6.96 8.905 6.9 4.755-.059 7.802-2.281 8.72-6.989 1.797-9.22 1.71-18.473.105-27.712-.82-4.72-3.745-7.098-8.487-7.278-5.18-.198-8.471 2.422-9.324 7.336-.789 4.55-.777 9.235-.995 12.199"/><path fill="#f6f6f6" d="M263.955 244.6h-13.353l-24.205-73.173h18.58c3.807 12.4 7.706 25.102 12.336 40.19l12.25-40.198h18.636z"/><path fill="#f8f8f8" d="M339.978 171.627v15.404h-31.005v12.349h26.369v16.099h-26.369v12.89h30.985v15.854h-49.44v-72.597z"/><path fill="#f6f6f6" d="M163.956 254.978v73.345h-17.649V294.21l-10.23 16.89h-11.875l-10.045-16.89v34.113H96.395v-73.345h16.995l16.72 32.315c5.735-11.108 10.982-21.848 16.385-32.316zm59.123 16.672h-30.857v11.728h26.727v16.132h-26.727v13.162h31.396v15.635h-49.2v-72.695h48.862z"/><path fill="#a0c637" d="M254.742 306.372c4.295-3.444 8.943-6.435 13.241-1.718 4.366 4.794 1.487 9.857-2.057 13.9-3.22 3.671-7.036 6.818-10.956 10.542-3.848-3.477-7.8-6.44-10.978-10.08-3.433-3.935-6.868-8.864-2.704-13.913 4.41-5.347 9.293-2.217 13.454 1.269"/></svg>